<?xml version="1.0" encoding="iso-8859-1"?>
<!-- Generator: Adobe Illustrator 19.0.0, SVG Export Plug-In . SVG Version: 6.00 Build 0)  -->
<svg version="1.1" id="Capa_1" xmlns="http://www.w3.org/2000/svg" xmlns:xlink="http://www.w3.org/1999/xlink" x="0px" y="0px"
	 viewBox="0 0 466.008 466.008" style="enable-background:new 0 0 466.008 466.008;" xml:space="preserve">
<g>
	<path style="fill:#70A9DC;" d="M393.004,303.208c26.456,26.048,28.456,29.648,28.456,40.712c0,15.688-12.768,28.456-28.456,28.456
		s-28.456-12.768-28.456-28.456C364.548,332.848,366.548,329.24,393.004,303.208"/>
	<path style="fill:#70A9DC;" d="M289.004,363.512c36.272,35.552,39.304,40.352,39.304,56.04c0,21.672-17.632,39.304-39.304,39.304
		S249.7,441.224,249.7,419.552C249.7,403.864,252.732,399.056,289.004,363.512"/>
</g>
<path style="fill:#F3F3F3;" d="M361.004,72c-7.688,0-13.128,1.056-20.576,2.328C314.5,28.192,274.404,8,233.004,8
	c-41.448,0-81.728,20.344-107.424,66.328C118.132,73.056,112.692,72,105.004,72c-48.512,0-88,39.48-88,88s39.488,88,88,88h256
	c48.512,0,88-39.48,88-88S409.516,72,361.004,72z"/>
<path style="fill:#E1E1E1;" d="M361.004,72c-7.688,0-13.136,1.056-20.576,2.328l-6.128,6.128
	c6.792,14.448,10.704,30.52,10.704,47.544c0,61.856-50.144,112-112,112v8h128c48.512,0,88-39.48,88-88S409.516,72,361.004,72z"/>
<polygon style="fill:#F9DB7B;" points="209.004,248 135.612,248 225.004,108.056 225.004,200 298.428,200 209.004,340.528 "/>
<g>
	<path style="fill:#010101;" d="M313.004,192h-80V80.672L121.004,256h80v112L313.004,192z M150.212,240l66.792-104.56
		c0,18.664,0,31.352,0,72.56c24.928,0,27.72,0,66.848,0l-66.848,105.056c0-92.376,0-33.32,0-73.056
		C177.548,240,174.948,240,150.212,240z"/>
	<path style="fill:#010101;" d="M457.004,160c0-52.936-43.064-96-96-96c-6.28,0-11.248,0.648-16.472,1.504
		C318.908,23.208,279.5,0,233.004,0c-46.608,0-86.032,23.208-111.544,65.512C116.252,64.648,111.284,64,105.004,64
		c-52.936,0-96,43.064-96,96c0,49.752,37.328,90.832,86.816,95.56c4.264,0.512,8.296-2.792,8.736-7.2
		c0.424-4.4-2.816-8.304-7.2-8.72C56.1,235.696,25.004,201.464,25.004,160c0-44.112,35.888-80,80-80
		c8.008,0,16.384,1.728,24.8,3.168C152.98,41.856,185.228,16,233.004,16c46.864,0,79.728,25.216,103.2,67.168
		c8.416-1.44,16.784-3.168,24.8-3.168c44.112,0,80,35.888,80,80s-35.888,80-80,80H304.86c-4.424,0-8,3.576-8,8s3.576,8,8,8h56.144
		C413.94,256,457.004,212.936,457.004,160z"/>
	<path style="fill:#010101;" d="M289.004,372.376c29.528,28.944,32,32.856,32,45.632c0,17.648-14.352,32-32,32s-32-14.352-32-32
		C257.004,405.224,259.476,401.312,289.004,372.376 M289.004,350c-38.512,37.72-48,45.368-48,68.008c0,26.464,21.528,48,48,48
		c26.464,0,48-21.536,48-48C337.004,395.376,327.492,387.704,289.004,350z"/>
	<path style="fill:#010101;" d="M393.004,314.896c18.6,18.304,20,20.84,20,28.616c0,11.032-8.976,20-20,20s-20-8.968-20-20
		C373.004,335.736,374.412,333.2,393.004,314.896 M393.004,292.512c-28.88,28.288-36,34.024-36,51.008c0,19.848,16.152,36,36,36
		s36-16.152,36-36C429.004,326.544,421.868,320.792,393.004,292.512z"/>
</g>
<g>
</g>
<g>
</g>
<g>
</g>
<g>
</g>
<g>
</g>
<g>
</g>
<g>
</g>
<g>
</g>
<g>
</g>
<g>
</g>
<g>
</g>
<g>
</g>
<g>
</g>
<g>
</g>
<g>
</g>
</svg>
