<?xml version="1.0" encoding="iso-8859-1"?>
<!-- Generator: Adobe Illustrator 19.0.0, SVG Export Plug-In . SVG Version: 6.00 Build 0)  -->
<svg version="1.1" id="Capa_1" xmlns="http://www.w3.org/2000/svg" xmlns:xlink="http://www.w3.org/1999/xlink" x="0px" y="0px"
	 viewBox="0 0 464 464" style="enable-background:new 0 0 464 464;" xml:space="preserve">
<path style="fill:#F3F3F3;" d="M360,72c-7.688,0-13.128,1.056-20.576,2.328C313.496,28.192,273.4,8,232,8
	c-41.448,0-81.728,20.344-107.424,66.328C117.128,73.056,111.688,72,104,72c-48.512,0-88,39.48-88,88s39.488,88,88,88h256
	c48.512,0,88-39.48,88-88S408.512,72,360,72z"/>
<path style="fill:#E1E1E1;" d="M360,72c-7.688,0-13.136,1.056-20.576,2.328l-6.128,6.128C340.088,94.904,344,110.976,344,128
	c0,61.856-50.144,112-112,112v8h128c48.512,0,88-39.48,88-88S408.512,72,360,72z"/>
<g>
	<circle style="fill:#70A9DC;" cx="400" cy="328" r="8"/>
	<path style="fill:#70A9DC;" d="M400,272c-4.416,0-8,3.584-8,8v16c0,4.416,3.584,8,8,8s8-3.584,8-8v-16
		C408,275.584,404.416,272,400,272z"/>
	<path style="fill:#70A9DC;" d="M400,352c-4.416,0-8,3.584-8,8v16c0,4.416,3.584,8,8,8s8-3.584,8-8v-16
		C408,355.584,404.416,352,400,352z"/>
	<path style="fill:#70A9DC;" d="M376.304,305.08l-13.856-8c-3.832-2.208-8.72-0.896-10.928,2.928s-0.896,8.72,2.928,10.928l13.856,8
		c3.824,2.208,8.72,0.896,10.928-2.928S380.128,307.288,376.304,305.08z"/>
	<path style="fill:#70A9DC;" d="M445.584,345.08l-13.856-8c-3.832-2.208-8.72-0.896-10.928,2.928s-0.896,8.72,2.928,10.928l13.856,8
		c3.832,2.208,8.72,0.896,10.928-2.928C450.72,352.184,449.408,347.288,445.584,345.08z"/>
	<path style="fill:#70A9DC;" d="M368.272,337.08l-13.848,8c-3.832,2.208-5.144,7.104-2.928,10.928
		c2.208,3.824,7.104,5.136,10.928,2.928l13.848-8c3.832-2.208,5.144-7.104,2.928-10.928
		C376.992,336.184,372.104,334.872,368.272,337.08z"/>
	<path style="fill:#70A9DC;" d="M431.704,318.944l13.856-8c3.824-2.208,5.136-7.104,2.928-10.928
		c-2.208-3.824-7.104-5.136-10.928-2.928l-13.856,8c-3.832,2.208-5.136,7.104-2.928,10.928
		C422.984,319.84,427.872,321.152,431.704,318.944z"/>
	<circle style="fill:#70A9DC;" cx="288" cy="408" r="8"/>
	<path style="fill:#70A9DC;" d="M288,352c-4.416,0-8,3.584-8,8v16c0,4.416,3.584,8,8,8s8-3.584,8-8v-16
		C296,355.584,292.416,352,288,352z"/>
	<path style="fill:#70A9DC;" d="M288,432c-4.416,0-8,3.584-8,8v16c0,4.416,3.584,8,8,8s8-3.584,8-8v-16
		C296,435.584,292.416,432,288,432z"/>
	<path style="fill:#70A9DC;" d="M264.304,385.08l-13.856-8c-3.832-2.208-8.72-0.896-10.928,2.928s-0.896,8.72,2.928,10.928l13.856,8
		c3.824,2.208,8.72,0.896,10.928-2.928S268.128,387.288,264.304,385.08z"/>
	<path style="fill:#70A9DC;" d="M333.584,425.08l-13.856-8c-3.832-2.208-8.72-0.896-10.928,2.928s-0.896,8.72,2.928,10.928l13.856,8
		c3.832,2.208,8.72,0.896,10.928-2.928C338.72,432.184,337.408,427.288,333.584,425.08z"/>
	<path style="fill:#70A9DC;" d="M256.272,417.08l-13.848,8c-3.832,2.208-5.144,7.104-2.928,10.928
		c2.208,3.824,7.104,5.136,10.928,2.928l13.848-8c3.832-2.208,5.144-7.104,2.928-10.928
		C264.992,416.184,260.104,414.872,256.272,417.08z"/>
	<path style="fill:#70A9DC;" d="M319.704,398.944l13.856-8c3.824-2.208,5.136-7.104,2.928-10.928
		c-2.208-3.824-7.104-5.136-10.928-2.928l-13.856,8c-3.832,2.208-5.136,7.104-2.928,10.928
		C310.984,399.84,315.872,401.152,319.704,398.944z"/>
</g>
<polygon style="fill:#F9DB7B;" points="208,248 134.608,248 224,108.056 224,200 297.424,200 208,340.528 "/>
<g>
	<path style="fill:#231F20;" d="M312,192h-80V80.672L120,256h80v112L312,192z M149.208,240L216,135.44c0,18.664,0,31.352,0,72.56
		c24.928,0,27.72,0,66.848,0L216,313.056c0-92.376,0-33.32,0-73.056C176.544,240,173.944,240,149.208,240z"/>
	<path style="fill:#231F20;" d="M360,64c-6.28,0-11.248,0.648-16.472,1.512C317.904,23.208,278.496,0,232,0
		c-46.608,0-86.032,23.208-111.544,65.512C115.248,64.648,110.28,64,104,64c-52.936,0-96,43.064-96,96
		c0,49.752,37.328,90.832,86.816,95.56c4.264,0.512,8.296-2.792,8.736-7.2c0.424-4.4-2.816-8.304-7.2-8.72
		C55.096,235.696,24,201.464,24,160c0-44.112,35.888-80,80-80c8.008,0,16.384,1.728,24.8,3.168C151.976,41.856,184.224,16,232,16
		c46.864,0,79.728,25.216,103.2,67.168C343.616,81.728,351.984,80,360,80c44.112,0,80,35.888,80,80s-35.888,80-80,80h-56.144
		c-4.424,0-8,3.576-8,8s3.576,8,8,8H360c52.936,0,96-43.064,96-96S412.936,64,360,64z"/>
</g>
<g>
</g>
<g>
</g>
<g>
</g>
<g>
</g>
<g>
</g>
<g>
</g>
<g>
</g>
<g>
</g>
<g>
</g>
<g>
</g>
<g>
</g>
<g>
</g>
<g>
</g>
<g>
</g>
<g>
</g>
</svg>
