<?xml version="1.0" encoding="iso-8859-1"?>
<!-- Generator: Adobe Illustrator 19.0.0, SVG Export Plug-In . SVG Version: 6.00 Build 0)  -->
<svg version="1.1" id="Capa_1" xmlns="http://www.w3.org/2000/svg" xmlns:xlink="http://www.w3.org/1999/xlink" x="0px" y="0px"
	 viewBox="0 0 479.988 479.988" style="enable-background:new 0 0 479.988 479.988;" xml:space="preserve">
<path style="fill:#FCF1CE;" d="M182.188,403.498c-5.48-9.152-15.144-14.616-25.832-14.616c-6.48,0-12.672,2.056-17.904,5.92
	l-15.28,11.328l-2.816-18.824c-2.168-14.64-14.968-25.688-29.752-25.688c-2.456,0-4.92,0.304-7.328,0.912l-18.456,4.608
	l4.624-18.464c2.048-8.224,0.512-16.984-4.184-24.032c-4.72-7.048-12.216-11.8-20.608-13.048l-18.808-2.8l11.328-15.288
	c5.048-6.816,6.984-15.488,5.344-23.8c-1.656-8.312-6.784-15.584-14.032-19.944l-16.328-9.768l16.312-9.792
	c7.28-4.368,12.392-11.632,14.032-19.952c1.656-8.312-0.296-16.992-5.344-23.8l-11.312-15.28l18.816-2.8
	c8.392-1.248,15.888-6,20.608-13.048c4.704-7.048,6.232-15.808,4.184-24.032l-4.656-18.568l18.488,4.72
	c2.408,0.608,4.872,0.912,7.328,0.912c14.784-0.008,27.576-11.048,29.752-25.688l2.816-18.816l15.28,11.328
	c5.232,3.872,11.424,5.92,17.904,5.92c10.688,0,20.36-5.472,25.84-14.616l9.784-16.304l9.784,16.304
	c5.48,9.152,15.16,14.616,25.84,14.616c6.48,0,12.672-2.056,17.904-5.92l15.28-11.328l2.816,18.816
	c2.168,14.64,14.968,25.688,29.752,25.688c2.456,0,4.92-0.312,7.328-0.912l18.456-4.608l-4.608,18.464
	c-2.048,8.216-0.528,16.976,4.168,24.024s12.216,11.808,20.608,13.056l18.816,2.8l-11.312,15.288c-5.048,6.8-7,15.48-5.344,23.792
	c1.64,8.32,6.752,15.584,14.016,19.952l16.328,9.784l-16.312,9.792c-7.264,4.36-12.392,11.632-14.048,19.944
	c-1.64,8.312,0.296,16.984,5.328,23.792l11.344,15.296l-18.816,2.8c-8.392,1.248-15.904,6.008-20.608,13.056
	s-6.216,15.808-4.168,24.032l4.64,18.56l-18.488-4.72c-2.408-0.608-4.872-0.912-7.328-0.912c-14.784,0-27.576,11.048-29.752,25.688
	l-2.816,18.824l-15.28-11.328c-5.232-3.864-11.424-5.92-17.888-5.92c-10.688,0-20.36,5.472-25.84,14.616l-9.8,16.304
	L182.188,403.498z"/>
<path style="fill:#F9DB7B;" d="M191.988,359.994c-66.168,0-120-53.832-120-120s53.832-120,120-120s120,53.832,120,120
	S258.156,359.994,191.988,359.994z"/>
<path style="fill:#A7B0A6;" d="M335.988,375.994c-74.984,0-136-61.008-136-136s61.016-136,136-136s136,61.008,136,136
	S410.972,375.994,335.988,375.994z"/>
<path style="fill:#010101;" d="M335.988,95.994c-19.176,0-37.464,3.84-54.216,10.68c-5.24-3.304-9.264-8.504-10.256-15.176
	l-3.888-26.104c-0.28-1.864-1.872-3.056-3.544-3.056c-0.728,0-1.464,0.224-2.12,0.704l-21.208,15.712
	c-3.976,2.944-8.576,4.344-13.136,4.344c-7.472,0-14.808-3.776-18.984-10.736L195.06,49.73c-0.696-1.16-1.888-1.736-3.072-1.736
	s-2.368,0.576-3.064,1.736L175.34,72.362c-4.176,6.96-11.512,10.736-18.984,10.736c-4.552,0-9.16-1.4-13.136-4.344l-21.208-15.712
	c-0.648-0.488-1.392-0.704-2.12-0.704c-1.672,0-3.272,1.192-3.552,3.056l-3.888,26.104c-1.648,11.072-11.168,18.856-21.84,18.856
	c-1.776,0-3.576-0.216-5.384-0.664l-25.608-6.4c-0.304-0.072-0.592-0.112-0.88-0.112c-2.24,0-4.032,2.128-3.456,4.448l6.4,25.608
	c3.168,12.672-5.28,25.312-18.192,27.232l-26.104,3.888c-2.672,0.4-3.96,3.504-2.344,5.672l15.712,21.208
	c7.776,10.496,4.808,25.4-6.384,32.12L1.74,236.938c-2.32,1.392-2.32,4.744,0,6.136l22.632,13.584
	c11.2,6.72,14.168,21.624,6.384,32.12l-15.712,21.208c-1.608,2.168-0.328,5.272,2.344,5.672l26.104,3.888
	c12.92,1.92,21.36,14.56,18.192,27.232l-6.4,25.608c-0.576,2.32,1.216,4.448,3.456,4.448c0.288,0,0.584-0.04,0.88-0.112l25.608-6.4
	c1.808-0.448,3.616-0.664,5.392-0.664c10.664,0,20.192,7.784,21.84,18.864l3.888,26.104c0.28,1.864,1.872,3.056,3.552,3.056
	c0.72,0,1.464-0.224,2.12-0.704l21.208-15.712c3.976-2.944,8.584-4.344,13.136-4.344c7.472,0,14.808,3.776,18.984,10.736
	l13.584,22.632c0.68,1.12,1.864,1.704,3.056,1.704s2.376-0.576,3.072-1.736l13.576-22.632c4.176-6.96,11.512-10.736,18.984-10.736
	c4.56,0,9.168,1.4,13.136,4.352l21.208,15.712c0.656,0.488,1.392,0.704,2.12,0.704c1.672,0,3.272-1.192,3.552-3.056l3.888-26.104
	c0.992-6.672,5.016-11.88,10.256-15.176c16.744,6.824,35.024,10.672,54.208,10.672c79.4,0,144-64.6,144-144
	S415.388,95.994,335.988,95.994z M255.692,386.138l-0.84,5.632l-4.568-3.392c-6.616-4.904-14.456-7.496-22.664-7.496
	c-13.328,0-25.856,7.088-32.704,18.504l-2.928,4.888l-2.928-4.88c-6.848-11.416-19.376-18.504-32.704-18.504
	c-8.208,0-16.048,2.592-22.664,7.496l-4.568,3.392l-0.84-5.624c-2.752-18.536-18.952-32.504-37.664-32.504
	c-3.112,0-6.232,0.384-9.272,1.144l-5.52,1.384l1.384-5.52c2.6-10.408,0.68-21.496-5.288-30.416
	c-5.96-8.92-15.464-14.944-26.08-16.52l-5.632-0.84l3.384-4.568c6.392-8.616,8.856-19.6,6.768-30.12
	c-2.096-10.52-8.568-19.728-17.776-25.24l-4.88-2.96l4.88-2.928c9.192-5.52,15.672-14.72,17.768-25.24
	c2.088-10.52-0.368-21.504-6.76-30.12l-3.384-4.576l5.632-0.84c10.616-1.576,20.12-7.6,26.08-16.52s7.888-20.008,5.288-30.416
	l-1.384-5.52l5.528,1.384c3.04,0.76,6.152,1.144,9.264,1.144c18.712,0,34.904-13.976,37.664-32.504l0.84-5.632l4.576,3.392
	c6.616,4.904,14.456,7.488,22.664,7.488c13.328,0,25.856-7.088,32.704-18.504l2.92-4.888l2.928,4.88
	c6.848,11.416,19.376,18.504,32.704,18.504c8.208,0,16.048-2.592,22.664-7.488l4.568-3.392l0.84,5.632
	c1.184,7.944,4.92,14.96,10.2,20.464c-6.008,3.368-11.688,7.208-17.136,11.368c-17.136-8.568-36.296-13.688-56.768-13.688
	c-70.688,0-128,57.304-128,128s57.312,128,128,128c20.472,0,39.632-5.12,56.776-13.688c5.44,4.16,11.128,8.008,17.136,11.368
	C260.62,371.17,256.876,378.186,255.692,386.138z M235.492,137.05c-26.8,26.168-43.504,62.624-43.504,102.944
	s16.704,76.776,43.504,102.936c-13.4,5.712-28.04,9.064-43.504,9.064c-61.76,0-112-50.24-112-112s50.24-112,112-112
	C207.452,127.994,222.092,131.346,235.492,137.05z M335.988,367.994c-70.688,0-128-57.312-128-128s57.312-128,128-128
	s128,57.304,128,128S406.676,367.994,335.988,367.994z"/>
<g>
	<path style="fill:#899689;" d="M284.364,186.282c11.344,0,20.576,9.232,20.576,20.568s-9.232,20.568-20.576,20.568
		s-20.568-9.224-20.568-20.568S273.02,186.282,284.364,186.282 M284.364,170.282c-20.168,0-36.568,16.4-36.568,36.568
		s16.4,36.568,36.568,36.568s36.576-16.4,36.576-36.568S304.54,170.282,284.364,170.282z"/>
	<path style="fill:#899689;" d="M385.508,285.706c6.304,0,11.432,5.128,11.432,11.432c0,6.304-5.128,11.432-11.432,11.432
		s-11.432-5.128-11.432-11.432C374.084,290.834,379.212,285.706,385.508,285.706 M385.508,269.706
		c-15.128,0-27.432,12.296-27.432,27.432c0,15.128,12.304,27.432,27.432,27.432s27.432-12.296,27.432-27.432
		C412.94,282.01,400.644,269.706,385.508,269.706z"/>
	<circle style="fill:#899689;" cx="297.108" cy="297.114" r="9.144"/>
	<circle style="fill:#899689;" cx="339.028" cy="154.282" r="4.568"/>
	<circle style="fill:#899689;" cx="348.18" cy="235.418" r="4.568"/>
	<circle style="fill:#899689;" cx="247.988" cy="270.058" r="4.568"/>
	<circle style="fill:#899689;" cx="421.324" cy="246.218" r="4.568"/>
	<circle style="fill:#899689;" cx="321.108" cy="336.874" r="4.568"/>
	<circle style="fill:#899689;" cx="390.844" cy="185.114" r="16"/>
</g>
<g>
</g>
<g>
</g>
<g>
</g>
<g>
</g>
<g>
</g>
<g>
</g>
<g>
</g>
<g>
</g>
<g>
</g>
<g>
</g>
<g>
</g>
<g>
</g>
<g>
</g>
<g>
</g>
<g>
</g>
</svg>
