<?xml version="1.0" encoding="iso-8859-1"?>
<!-- Generator: Adobe Illustrator 19.0.0, SVG Export Plug-In . SVG Version: 6.00 Build 0)  -->
<svg version="1.1" id="Capa_1" xmlns="http://www.w3.org/2000/svg" xmlns:xlink="http://www.w3.org/1999/xlink" x="0px" y="0px"
	 viewBox="0 0 525.576 525.576" style="enable-background:new 0 0 525.576 525.576;" xml:space="preserve">
<g>
	<path style="fill:#70A9DC;" d="M492.696,238.028c-13.72,0-24.872,11.168-24.872,24.88c0,13.72,11.16,24.88,24.872,24.88
		s24.872-11.168,24.872-24.88S506.416,238.028,492.696,238.028z"/>
	<path style="fill:#70A9DC;" d="M377.776,38.788c-13.72,0-24.872,11.168-24.872,24.88s11.16,24.88,24.872,24.88
		s24.888-11.168,24.888-24.88S391.496,38.788,377.776,38.788z"/>
	<path style="fill:#70A9DC;" d="M377.696,437.02c-13.72,0-24.872,11.168-24.872,24.88s11.152,24.888,24.872,24.888
		s24.888-11.168,24.888-24.88S391.416,437.02,377.696,437.02z"/>
	<path style="fill:#70A9DC;" d="M147.864,437.02c-13.72,0-24.872,11.168-24.872,24.88s11.16,24.888,24.872,24.888
		s24.888-11.168,24.888-24.88S161.584,437.02,147.864,437.02z"/>
	<path style="fill:#70A9DC;" d="M32.88,237.86c-13.72,0-24.872,11.168-24.872,24.88c0,13.72,11.16,24.88,24.872,24.88
		s24.872-11.168,24.872-24.88S46.6,237.86,32.88,237.86z"/>
	<path style="fill:#70A9DC;" d="M147.864,38.788c-13.72,0-24.872,11.168-24.872,24.88s11.16,24.88,24.872,24.88
		s24.888-11.168,24.888-24.88S161.584,38.788,147.864,38.788z"/>
	<polygon style="fill:#70A9DC;" points="387.112,334.548 352.6,274.772 345.672,262.772 352.6,250.772 387.112,190.996 
		318.088,190.996 304.232,190.996 297.304,178.996 262.792,119.22 228.28,178.996 221.344,190.996 207.496,190.996 138.472,190.996 
		172.984,250.772 179.904,262.772 172.984,274.772 138.472,334.548 207.496,334.548 221.344,334.548 228.28,346.548 
		262.792,406.324 297.304,346.548 304.232,334.548 318.088,334.548 	"/>
</g>
<g>
	<path style="fill:#010101;" d="M435.6,162.996c-1.424-2.48-4.064-4-6.92-4H322.712l-53-91.776c-2.84-4.952-11-4.952-13.84,0
		l-53,91.776H96.896c-2.856,0-5.504,1.52-6.92,4c-1.44,2.48-1.44,5.52,0,8l52.984,91.784l-52.984,91.768c-1.44,2.48-1.44,5.52,0,8
		c1.424,2.48,4.064,4,6.92,4h105.968l53,91.776c1.424,2.48,4.064,4,6.92,4s5.504-1.52,6.92-4l53-91.776h105.968
		c2.856,0,5.504-1.52,6.92-4c1.44-2.48,1.44-5.52,0-8l-52.984-91.776l52.984-91.784C437.04,168.516,437.04,165.468,435.6,162.996z
		 M262.792,87.22l46.064,79.776l-46.064,79.808l-46.064-79.808L262.792,87.22z M110.76,174.996h92.12l46.056,79.792l-92.128-0.016
		L110.76,174.996z M110.76,350.548l46.048-79.776l92.128,0.016l-46.056,79.76H110.76z M262.792,438.324l-46.072-79.776
		l46.064-79.768l46.064,79.768L262.792,438.324z M414.824,350.548h-92.128l-46.056-79.76h92.144L414.824,350.548z M368.76,254.788
		h-92.12l46.064-79.8h92.12L368.76,254.788z"/>
	<path style="fill:#010101;" d="M492.688,230.028c-18.128,0-32.872,14.752-32.872,32.88s14.752,32.88,32.872,32.88
		c18.144,0,32.888-14.752,32.888-32.88S510.832,230.028,492.688,230.028z M492.688,279.796c-9.312,0-16.872-7.568-16.872-16.88
		s7.56-16.88,16.872-16.88s16.888,7.568,16.888,16.88S502,279.796,492.688,279.796z"/>
	<path style="fill:#010101;" d="M377.768,96.556c18.144,0,32.888-14.752,32.888-32.88s-14.744-32.888-32.888-32.888
		c-18.128,0-32.872,14.752-32.872,32.88S359.648,96.556,377.768,96.556z M377.768,46.788c9.312,0,16.888,7.568,16.888,16.88
		s-7.576,16.88-16.888,16.88s-16.872-7.568-16.872-16.88S368.456,46.788,377.768,46.788z"/>
	<path style="fill:#010101;" d="M377.696,429.02c-18.128,0-32.872,14.752-32.872,32.88s14.744,32.888,32.872,32.888
		c18.144,0,32.888-14.752,32.888-32.88S395.84,429.02,377.696,429.02z M377.696,478.788c-9.312,0-16.872-7.568-16.872-16.88
		s7.56-16.88,16.872-16.88s16.888,7.568,16.888,16.88S387.008,478.788,377.696,478.788z"/>
	<path style="fill:#010101;" d="M147.864,429.02c-18.128,0-32.872,14.752-32.872,32.88s14.752,32.888,32.872,32.888
		c18.144,0,32.888-14.752,32.888-32.88S166.008,429.02,147.864,429.02z M147.864,478.788c-9.312,0-16.872-7.568-16.872-16.88
		s7.56-16.88,16.872-16.88s16.888,7.568,16.888,16.88S157.176,478.788,147.864,478.788z"/>
	<path style="fill:#010101;" d="M32.872,229.86C14.752,229.86,0,244.612,0,262.74s14.752,32.88,32.872,32.88
		c18.144,0,32.888-14.752,32.888-32.88S51.016,229.86,32.872,229.86z M32.872,279.62C23.56,279.62,16,272.052,16,262.74
		s7.56-16.88,16.872-16.88s16.888,7.568,16.888,16.88C49.768,272.052,42.184,279.62,32.872,279.62z"/>
	<path style="fill:#010101;" d="M147.864,96.556c18.144,0,32.888-14.752,32.888-32.88s-14.744-32.888-32.888-32.888
		c-18.128,0-32.872,14.752-32.872,32.88S129.744,96.556,147.864,96.556z M147.864,46.788c9.312,0,16.888,7.568,16.888,16.88
		s-7.576,16.88-16.888,16.88s-16.872-7.568-16.872-16.88S138.552,46.788,147.864,46.788z"/>
</g>
<g>
</g>
<g>
</g>
<g>
</g>
<g>
</g>
<g>
</g>
<g>
</g>
<g>
</g>
<g>
</g>
<g>
</g>
<g>
</g>
<g>
</g>
<g>
</g>
<g>
</g>
<g>
</g>
<g>
</g>
</svg>
