<?xml version="1.0" encoding="iso-8859-1"?>
<!-- Generator: Adobe Illustrator 19.0.0, SVG Export Plug-In . SVG Version: 6.00 Build 0)  -->
<svg version="1.1" id="Capa_1" xmlns="http://www.w3.org/2000/svg" xmlns:xlink="http://www.w3.org/1999/xlink" x="0px" y="0px"
	 viewBox="0 0 448 448" style="enable-background:new 0 0 448 448;" xml:space="preserve">
<g>
	<path style="fill:#A4C4E7;" d="M415.968,358.512c-11.952,0-24.016-7.336-24.016-23.736c0-11.64,10.56-21.536,21.752-32.008
		c0.752-0.712,1.504-1.416,2.248-2.128c0.752,0.704,1.488,1.4,2.232,2.104c11.2,10.48,21.768,20.368,21.768,32.032
		c0,7.544-2.456,13.536-7.28,17.808C428.392,356.344,422.312,358.512,415.968,358.512z"/>
	<path style="fill:#A4C4E7;" d="M351.968,438.512c-11.952,0-24.016-7.336-24.016-23.736c0-11.64,10.56-21.536,21.752-32.008
		c0.752-0.712,1.504-1.416,2.248-2.128c0.752,0.704,1.488,1.4,2.232,2.104c11.2,10.48,21.768,20.368,21.768,32.032
		c0,7.544-2.456,13.536-7.28,17.808C364.392,436.344,358.312,438.512,351.968,438.512z"/>
</g>
<path style="fill:#F3F3F3;" d="M352,73.488c-7.688,0-13.128,1.056-20.576,2.328C305.496,29.68,265.4,9.488,224,9.488
	c-41.448,0-81.728,20.344-107.424,66.328c-7.448-1.272-12.888-2.328-20.576-2.328c-48.52,0-88,39.48-88,88s39.488,88,88,88h256
	c48.512,0,88-39.48,88-88S400.512,73.488,352,73.488z"/>
<path style="fill:#E1E1E1;" d="M352,73.488c-7.688,0-13.136,1.056-20.576,2.328l-6.128,6.128
	C332.088,96.392,336,112.464,336,129.488c0,61.856-50.144,112-112,112v8h128c48.512,0,88-39.48,88-88S400.512,73.488,352,73.488z"/>
<polygon style="fill:#A4C4E7;" points="289.024,287.064 271.944,257.488 267.32,249.488 271.944,241.488 289.024,211.912 
	254.864,211.912 245.632,211.912 241.008,203.904 223.936,174.328 206.848,203.912 202.232,211.912 192.992,211.912 158.84,211.912 
	175.92,241.488 180.544,249.488 175.92,257.488 158.84,287.064 188.976,287.064 192.992,287.064 202.232,287.064 206.848,295.064 
	223.936,324.648 241.008,295.064 245.632,287.064 254.864,287.064 "/>
<g>
	<path style="fill:#010101;" d="M415.96,289.528c-13.808,13.808-32,26.832-32,45.248c0,21.152,16.008,31.736,32.016,31.736
		c15.992,0,31.984-10.568,31.984-31.736C447.96,316.344,429.768,303.336,415.96,289.528z M415.976,350.512
		c-2.672,0-16.016-0.76-16.016-15.736c0-7.28,7.4-15.016,16-23.16c8.6,8.136,16,15.864,16,23.16
		C431.96,349.752,418.648,350.512,415.976,350.512z"/>
	<path style="fill:#010101;" d="M351.96,369.528c-13.808,13.808-32,26.832-32,45.248c0,21.152,16.008,31.736,32.016,31.736
		c15.992,0,31.984-10.568,31.984-31.736C383.96,396.344,365.768,383.336,351.96,369.528z M351.976,430.512
		c-2.672,0-16.016-0.76-16.016-15.736c0-7.28,7.4-15.016,16-23.16c8.6,8.136,16,15.864,16,23.16
		C367.96,429.752,354.648,430.512,351.976,430.512z"/>
	<path style="fill:#010101;" d="M127.968,249.488c0-4.424-3.576-8-8-8H96c-44.112,0-80-35.888-80-80s35.888-80,80-80
		c6.256,0,17.768,1.664,24.528,2.52c24.76-40.144,55.696-66.52,103.472-66.52s78.72,26.4,103.472,66.52
		c6.76-0.856,18.272-2.52,24.528-2.52c44.112,0,80,35.888,80,80s-35.888,80-80,80h-23.952c-4.424,0-8,3.576-8,8s3.576,8,8,8H352
		c52.936,0,96-43.064,96-96s-43.064-96-96-96c-5.472,0-10.8,0.64-16.392,1.36C307.392,23.472,269.872,1.488,224,1.488
		s-83.392,21.984-111.608,65.36c-5.592-0.72-10.92-1.36-16.392-1.36c-52.936,0-96,43.064-96,96s43.064,96,96,96h23.968
		C124.392,257.488,127.968,253.912,127.968,249.488z"/>
	<path style="fill:#010101;" d="M337.512,315.064c1.44-2.48,1.44-5.52,0-8l-33.248-57.576l33.248-57.576c1.44-2.48,1.44-5.52,0-8
		c-1.424-2.48-4.064-4-6.92-4h-66.488l-33.248-57.584c-1.424-2.48-4.064-4-6.92-4s-5.504,1.52-6.92,4l-33.264,57.584h-66.488
		c-2.856,0-5.504,1.52-6.92,4c-1.44,2.48-1.44,5.52,0,8l33.248,57.576l-33.248,57.576c-1.44,2.48-1.44,5.52,0,8
		c1.424,2.48,4.064,4,6.92,4h66.488l33.264,57.584c1.424,2.48,4.064,4,6.92,4s5.496-1.52,6.92-4l33.248-57.584h66.488
		C333.456,319.064,336.096,317.544,337.512,315.064z M316.736,195.912l-26.328,45.592h-52.624l26.312-45.592H316.736z
		 M223.936,142.32l26.32,45.584l-26.32,45.6l-26.336-45.6L223.936,142.32z M131.128,195.912h52.64l26.328,45.592l-52.656-0.016
		L131.128,195.912z M131.128,303.064l26.312-45.576l52.648,0.008l-26.32,45.568H131.128z M223.936,356.656l-26.328-45.584
		l26.328-45.584l26.32,45.576L223.936,356.656z M264.096,303.064l-26.312-45.56h52.64l26.304,45.56H264.096z"/>
	<circle style="fill:#010101;" cx="150.048" cy="377.488" r="16"/>
	<circle style="fill:#010101;" cx="297.92" cy="377.488" r="16"/>
	<circle style="fill:#010101;" cx="150.048" cy="121.472" r="16"/>
	<ellipse style="fill:#010101;" cx="297.833" cy="121.496" rx="16" ry="16"/>
</g>
<g>
</g>
<g>
</g>
<g>
</g>
<g>
</g>
<g>
</g>
<g>
</g>
<g>
</g>
<g>
</g>
<g>
</g>
<g>
</g>
<g>
</g>
<g>
</g>
<g>
</g>
<g>
</g>
<g>
</g>
</svg>
