<?xml version="1.0" encoding="iso-8859-1"?>
<!-- Generator: Adobe Illustrator 19.0.0, SVG Export Plug-In . SVG Version: 6.00 Build 0)  -->
<svg version="1.1" id="Capa_1" xmlns="http://www.w3.org/2000/svg" xmlns:xlink="http://www.w3.org/1999/xlink" x="0px" y="0px"
	 viewBox="0 0 457.52 457.52" style="enable-background:new 0 0 457.52 457.52;" xml:space="preserve">
<path style="fill:#F3F3F3;" d="M352,76.816c-7.688,0-13.128,1.056-20.576,2.328C305.496,33.008,265.4,12.816,224,12.816
	c-41.448,0-81.728,20.344-107.424,66.328c-7.448-1.272-12.888-2.328-20.576-2.328c-48.52,0-88,39.48-88,88s39.488,88,88,88h256
	c48.512,0,88-39.48,88-88S400.512,76.816,352,76.816z"/>
<path style="fill:#E1E1E1;" d="M352,76.816c-7.688,0-13.136,1.056-20.576,2.328l-6.128,6.128C332.088,99.72,336,115.792,336,132.816
	c0,61.856-50.144,112-112,112v8h128c48.512,0,88-39.48,88-88S400.512,76.816,352,76.816z"/>
<polygon style="fill:#A4C4E7;" points="289.024,290.392 271.944,260.816 267.32,252.816 271.944,244.816 289.024,215.24 
	254.864,215.24 245.632,215.24 241.008,207.232 223.936,177.656 206.848,207.24 202.232,215.24 192.992,215.24 158.84,215.24 
	175.92,244.816 180.544,252.816 175.92,260.816 158.84,290.392 188.976,290.392 192.992,290.392 202.232,290.392 206.848,298.392 
	223.936,327.976 241.008,298.4 245.632,290.392 254.864,290.392 "/>
<g>
	<circle style="fill:#010101;" cx="407.936" cy="396.704" r="8"/>
	<path style="fill:#010101;" d="M407.936,340.704c-4.416,0-8,3.584-8,8v16c0,4.416,3.584,8,8,8s8-3.584,8-8v-16
		C415.936,344.28,412.352,340.704,407.936,340.704z"/>
	<path style="fill:#010101;" d="M407.936,420.704c-4.416,0-8,3.584-8,8v16c0,4.416,3.584,8,8,8s8-3.584,8-8v-16
		C415.936,424.28,412.352,420.704,407.936,420.704z"/>
	<path style="fill:#010101;" d="M384.24,373.784l-13.856-8c-3.832-2.208-8.72-0.896-10.928,2.928s-0.896,8.72,2.928,10.928l13.856,8
		c3.824,2.208,8.72,0.896,10.928-2.928C389.376,380.88,388.064,375.992,384.24,373.784z"/>
	<path style="fill:#010101;" d="M453.52,413.784l-13.856-8c-3.832-2.208-8.72-0.896-10.928,2.928s-0.896,8.72,2.928,10.928l13.856,8
		c3.832,2.208,8.72,0.896,10.928-2.928S457.344,415.992,453.52,413.784z"/>
	<path style="fill:#010101;" d="M376.208,405.784l-13.848,8c-3.832,2.208-5.144,7.104-2.928,10.928
		c2.208,3.824,7.104,5.136,10.928,2.928l13.848-8c3.832-2.208,5.144-7.104,2.928-10.928
		C384.928,404.888,380.04,403.576,376.208,405.784z"/>
	<path style="fill:#010101;" d="M439.64,387.64l13.856-8c3.824-2.208,5.136-7.104,2.928-10.928
		c-2.208-3.824-7.104-5.136-10.928-2.928l-13.856,8c-3.832,2.208-5.136,7.104-2.928,10.928
		C430.92,388.544,435.816,389.856,439.64,387.64z"/>
	<path style="fill:#010101;" d="M352,68.816c-5.472,0-10.8,0.64-16.392,1.36C307.392,26.8,269.872,4.816,224,4.816
		S140.608,26.8,112.392,70.176c-5.592-0.72-10.92-1.36-16.392-1.36c-52.936,0-96,43.064-96,96s43.064,96,96,96h23.968
		c4.424,0,8-3.576,8-8c0-4.424-3.576-8-8-8H96c-44.112,0-80-35.888-80-80s35.888-80,80-80c6.256,0,17.768,1.664,24.528,2.52
		c24.76-40.144,55.696-66.52,103.472-66.52s78.72,26.4,103.472,66.52c6.76-0.856,18.272-2.52,24.528-2.52c44.112,0,80,35.888,80,80
		s-35.888,80-80,80h-23.952c-4.424,0-8,3.576-8,8c0,4.424,3.576,8,8,8H352c52.936,0,96-43.064,96-96S404.936,68.816,352,68.816z"/>
	<path style="fill:#010101;" d="M304.264,252.816l33.248-57.576c1.44-2.48,1.44-5.52,0-8c-1.424-2.48-4.064-4-6.92-4h-66.488
		l-33.248-57.584c-1.424-2.48-4.064-4-6.92-4s-5.504,1.52-6.92,4l-33.264,57.584h-66.488c-2.856,0-5.504,1.52-6.92,4
		c-1.44,2.48-1.44,5.52,0,8l33.248,57.576l-33.248,57.576c-1.44,2.48-1.44,5.52,0,8c1.424,2.48,4.064,4,6.92,4h66.488l33.264,57.584
		c1.424,2.48,4.064,4,6.92,4s5.496-1.52,6.92-4l33.248-57.584h66.488c2.856,0,5.504-1.52,6.92-4c1.44-2.48,1.44-5.52,0-8
		L304.264,252.816z M316.736,199.24l-26.32,45.592h-52.624l26.312-45.592C264.096,199.24,316.736,199.24,316.736,199.24z
		 M223.936,145.648l26.32,45.584l-26.32,45.6l-26.336-45.6L223.936,145.648z M131.128,199.24h52.64l26.328,45.592l-52.656-0.016
		L131.128,199.24z M131.128,306.392l26.312-45.576l52.648,0.008l-26.32,45.568H131.128z M223.936,359.984L197.608,314.4
		l26.328-45.584l26.32,45.576L223.936,359.984z M264.096,306.392l-26.312-45.56h52.64l26.304,45.56H264.096z"/>
	<circle style="fill:#010101;" cx="150.048" cy="380.816" r="16"/>
	<circle style="fill:#010101;" cx="297.92" cy="380.816" r="16"/>
	<circle style="fill:#010101;" cx="150.048" cy="124.8" r="16"/>
	<ellipse style="fill:#010101;" cx="297.833" cy="124.808" rx="16" ry="16"/>
</g>
<g>
</g>
<g>
</g>
<g>
</g>
<g>
</g>
<g>
</g>
<g>
</g>
<g>
</g>
<g>
</g>
<g>
</g>
<g>
</g>
<g>
</g>
<g>
</g>
<g>
</g>
<g>
</g>
<g>
</g>
</svg>
