<?xml version="1.0" encoding="iso-8859-1"?>
<!-- Generator: Adobe Illustrator 19.0.0, SVG Export Plug-In . SVG Version: 6.00 Build 0)  -->
<svg version="1.1" id="Capa_1" xmlns="http://www.w3.org/2000/svg" xmlns:xlink="http://www.w3.org/1999/xlink" x="0px" y="0px"
	 viewBox="0 0 448 448" style="enable-background:new 0 0 448 448;" xml:space="preserve">
<path style="fill:#F3F3F3;" d="M352,104c-7.688,0-13.128,1.056-20.576,2.328C305.496,60.192,265.4,40,224,40
	c-41.448,0-81.728,20.344-107.424,66.328C109.128,105.056,103.688,104,96,104c-48.512,0-88,39.48-88,88s39.488,88,88,88h256
	c48.512,0,88-39.48,88-88S400.512,104,352,104z"/>
<path style="fill:#E1E1E1;" d="M352,104c-7.688,0-13.136,1.056-20.576,2.328l-6.128,6.128C332.088,126.904,336,142.976,336,160
	c0,61.856-50.144,112-112,112v8h128c48.512,0,88-39.48,88-88S400.512,104,352,104z"/>
<g>
	<path style="fill:#A4C4E7;" d="M80.016,408C68.064,408,56,400.664,56,384.264c0-11.648,10.576-21.552,21.768-32.04
		c0.752-0.696,1.488-1.4,2.232-2.096c0.752,0.696,1.488,1.4,2.232,2.096C93.424,362.712,104,372.616,104,384.264
		c0,7.544-2.456,13.536-7.28,17.808C92.44,405.832,86.36,408,80.016,408z"/>
	<path style="fill:#A4C4E7;" d="M224.016,408C212.064,408,200,400.664,200,384.264c0-11.648,10.576-21.552,21.768-32.04
		c0.752-0.696,1.488-1.4,2.232-2.096c0.752,0.696,1.488,1.4,2.232,2.096C237.424,362.712,248,372.616,248,384.264
		c0,7.544-2.456,13.536-7.28,17.808C236.44,405.832,230.36,408,224.016,408z"/>
	<path style="fill:#A4C4E7;" d="M368.016,408C356.064,408,344,400.664,344,384.264c0-11.648,10.576-21.552,21.768-32.04
		c0.752-0.696,1.488-1.4,2.232-2.096c0.752,0.696,1.488,1.4,2.232,2.096C381.424,362.712,392,372.616,392,384.264
		c0,7.544-2.456,13.536-7.28,17.808C380.44,405.832,374.36,408,368.016,408z"/>
</g>
<g>
	<path style="fill:#010101;" d="M352,96c-5.584,0-11.032,0.576-16.352,1.496C313.728,58.432,271.976,32,224,32
		s-89.728,26.432-111.648,65.496C107.032,96.576,101.592,96,96,96c-53.016,0-96,42.984-96,96s42.984,96,96,96h256
		c53.016,0,96-42.984,96-96S405.016,96,352,96z M352,272H96c-44.112,0-80-35.888-80-80s35.888-80,80-80
		c8.184,0,16.288,1.72,24.776,3.176C147.08,68.312,181.744,48,224,48c42.248,0,76.912,20.304,103.224,67.176
		C335.712,113.72,343.816,112,352,112c44.112,0,80,35.888,80,80S396.112,272,352,272z"/>
	<path style="fill:#010101;" d="M80,339.016c-13.808,13.808-32,26.832-32,45.248C48,405.416,64.008,416,80.016,416
		c16,0,31.992-10.568,31.992-31.736C112,365.848,93.808,352.824,80,339.016z M80.016,400C77.344,400,64,399.24,64,384.264
		c0-7.28,7.4-15.016,16-23.16c8.6,8.144,16,15.872,16,23.16C96,399.24,82.68,400,80.016,400z"/>
	<path style="fill:#010101;" d="M224,339.016c-13.808,13.808-32,26.832-32,45.248C192,405.416,208.008,416,224.008,416
		S256,405.432,256,384.264C256,365.848,237.808,352.824,224,339.016z M224.016,400c-2.672,0-16.016-0.76-16.016-15.736
		c0-7.28,7.4-15.016,16-23.16c8.6,8.144,16,15.872,16,23.16C240,399.24,226.68,400,224.016,400z"/>
	<path style="fill:#010101;" d="M368,339.016c-13.808,13.808-32,26.832-32,45.248C336,405.416,352.008,416,368.008,416
		S400,405.432,400,384.264C400,365.848,381.808,352.824,368,339.016z M368.016,400c-2.672,0-16.016-0.76-16.016-15.736
		c0-7.28,7.4-15.016,16-23.16c8.6,8.144,16,15.872,16,23.16C384,399.24,370.68,400,368.016,400z"/>
</g>
<g>
</g>
<g>
</g>
<g>
</g>
<g>
</g>
<g>
</g>
<g>
</g>
<g>
</g>
<g>
</g>
<g>
</g>
<g>
</g>
<g>
</g>
<g>
</g>
<g>
</g>
<g>
</g>
<g>
</g>
</svg>
