<?xml version="1.0" encoding="iso-8859-1"?>
<!-- Generator: Adobe Illustrator 19.0.0, SVG Export Plug-In . SVG Version: 6.00 Build 0)  -->
<svg version="1.1" id="Capa_1" xmlns="http://www.w3.org/2000/svg" xmlns:xlink="http://www.w3.org/1999/xlink" x="0px" y="0px"
	 viewBox="0 0 464 464" style="enable-background:new 0 0 464 464;" xml:space="preserve">
<circle style="fill:#FAFDFF;" cx="224" cy="240" r="224"/>
<circle style="fill:#EAF6FD;" cx="224" cy="240" r="192"/>
<path style="fill:#010101;" d="M32,16c0,18.384-13.616,32-32,32c18.384,0,32,13.616,32,32c0-18.384,13.616-32,32-32
	C45.616,48,32,34.384,32,16z"/>
<circle style="fill:#D9E3D4;" cx="224" cy="240" r="160"/>
<path style="fill:#BFC9BE;" d="M224,80c-16.728,0-32.84,2.584-48,7.344c64.912,20.392,112,81.016,112,152.648
	c0,71.64-47.088,132.264-112,152.648c15.16,4.76,31.272,7.344,48,7.344c88.368,0,160-71.632,160-160C384,151.632,312.368,80,224,80z
	"/>
<path style="fill:#EDF1EA;" d="M124.168,353.136c-62.48-62.48-62.488-163.792,0-226.272C153.712,97.32,191.944,81.92,230.64,80.32
	c-43.136-1.784-86.848,13.616-119.776,46.544c-62.48,62.48-62.488,163.792,0,226.272c32.936,32.936,76.648,48.328,119.784,46.544
	C191.952,398.08,153.712,382.688,124.168,353.136z"/>
<g>
	<path style="fill:#BCC5B8;" d="M159.472,168.856c16.384,0,29.712,13.328,29.712,29.712s-13.328,29.712-29.712,29.712
		s-29.712-13.328-29.712-29.712C129.76,182.192,143.088,168.856,159.472,168.856 M159.472,152.856
		c-25.216,0-45.712,20.496-45.712,45.712s20.496,45.712,45.712,45.712s45.712-20.504,45.712-45.712S184.688,152.856,159.472,152.856
		z"/>
	<path style="fill:#BCC5B8;" d="M285.904,293.144c10.08,0,18.288,8.2,18.288,18.288c0,10.08-8.2,18.288-18.288,18.288
		c-10.088,0-18.288-8.2-18.288-18.288C267.616,301.352,275.824,293.144,285.904,293.144 M285.904,277.144
		c-18.912,0-34.288,15.376-34.288,34.288s15.376,34.288,34.288,34.288s34.288-15.376,34.288-34.288S304.816,277.144,285.904,277.144
		z"/>
</g>
<path style="fill:#B3BDB2;" d="M285.904,277.144c-0.808,0-1.56,0.184-2.352,0.24c-1.44,6.024-3.272,11.88-5.376,17.616
	c2.368-1.12,4.944-1.856,7.728-1.856c10.08,0,18.288,8.2,18.288,18.288c0,10.08-8.2,18.288-18.288,18.288
	c-8.368,0-15.144-5.76-17.312-13.44c-2.984,5.48-6.304,10.744-9.88,15.808c6.264,8.224,16.064,13.624,27.192,13.624
	c18.912,0,34.288-15.376,34.288-34.288C320.192,292.52,304.816,277.144,285.904,277.144z"/>
<g>
	<circle style="fill:#BCC5B8;" cx="175.432" cy="311.432" r="11.432"/>
	<circle style="fill:#BCC5B8;" cx="218.32" cy="138.288" r="5.712"/>
	<circle style="fill:#BCC5B8;" cx="239.24" cy="234.256" r="5.712"/>
	<circle style="fill:#BCC5B8;" cx="114" cy="277.584" r="5.712"/>
</g>
<circle style="fill:#B3BDB2;" cx="330.64" cy="247.784" r="5.712"/>
<circle style="fill:#BCC5B8;" cx="205.432" cy="361.136" r="5.712"/>
<circle style="fill:#B3BDB2;" cx="292.568" cy="171.432" r="20"/>
<g>
	<path style="fill:#010101;" d="M48,239.496c0,97.048,78.952,176,176,176s176-78.952,176-176s-78.952-176-176-176
		S48,142.456,48,239.496z M64,239.496c0-88.368,71.632-160,160-160c40.52,0,77.408,15.184,105.6,40.016H272c-4.416,0-8,3.584-8,8
		c0,4.416,3.584,8,8,8h73.456c10.24,11.944,18.768,25.384,25.152,40H304c-4.416,0-8,3.584-8,8s3.584,8,8,8h72.656
		c3.992,12.704,6.256,26.144,6.944,40H320c-4.416,0-8,3.584-8,8s3.584,8,8,8h63.592c-0.696,14.04-3.04,27.64-7.128,40.504H304
		c-4.416,0-8,3.584-8,8s3.584,8,8,8h66.344c-6.36,14.416-14.792,27.688-24.92,39.496H272c-4.416,0-8,3.584-8,8s3.584,8,8,8h57.568
		c-28.184,24.816-65.064,39.984-105.568,39.984C135.632,399.496,64,327.864,64,239.496z"/>
	<circle style="fill:#010101;" cx="240" cy="128.496" r="8"/>
	<circle style="fill:#010101;" cx="272" cy="184.016" r="8"/>
	<circle style="fill:#010101;" cx="288" cy="239.512" r="8"/>
	<circle style="fill:#010101;" cx="272" cy="295.512" r="8"/>
	<circle style="fill:#010101;" cx="240" cy="350.504" r="8"/>
</g>
<g>
	<path style="fill:#FCD95F;" d="M400,0c0,36.768-27.232,64-64,64c36.768,0,64,27.224,64,64c0-36.776,27.232-64,64-64
		C427.232,64,400,36.768,400,0z"/>
	<path style="fill:#FCD95F;" d="M370.064,64c12.92,6.616,23.312,17.016,29.936,29.944c6.624-12.928,17.016-23.328,29.936-29.944
		c-12.92-6.616-23.312-17.016-29.936-29.944C393.376,46.984,382.984,57.384,370.064,64z"/>
</g>
<path style="fill:#010101;" d="M400,49.176c4.232,5.6,9.216,10.584,14.816,14.816c-5.6,4.24-10.584,9.216-14.816,14.816
	c-4.232-5.6-9.216-10.584-14.816-14.816C390.784,59.76,395.768,54.784,400,49.176 M400,0c0,36.768-27.232,64-64,64
	c36.768,0,64,27.224,64,64c0-36.776,27.232-64,64-64C427.232,64,400,36.768,400,0z"/>
<g>
</g>
<g>
</g>
<g>
</g>
<g>
</g>
<g>
</g>
<g>
</g>
<g>
</g>
<g>
</g>
<g>
</g>
<g>
</g>
<g>
</g>
<g>
</g>
<g>
</g>
<g>
</g>
<g>
</g>
</svg>
