<?xml version="1.0" encoding="iso-8859-1"?>
<!-- Generator: Adobe Illustrator 19.0.0, SVG Export Plug-In . SVG Version: 6.00 Build 0)  -->
<svg version="1.1" id="Capa_1" xmlns="http://www.w3.org/2000/svg" xmlns:xlink="http://www.w3.org/1999/xlink" x="0px" y="0px"
	 viewBox="0 0 464 464" style="enable-background:new 0 0 464 464;" xml:space="preserve">
<circle style="fill:#FAFDFF;" cx="224" cy="240" r="224"/>
<circle style="fill:#EAF6FD;" cx="224" cy="240" r="192"/>
<path style="fill:#010101;" d="M32,16c0,18.384-13.616,32-32,32c18.384,0,32,13.616,32,32c0-18.384,13.616-32,32-32
	C45.616,48,32,34.384,32,16z"/>
<circle style="fill:#D9E3D4;" cx="224" cy="240" r="160"/>
<path style="fill:#BFC9BE;" d="M280,90.28C219.296,113,176,171.368,176,240.008c0,68.632,43.296,127,104,149.728
	c60.704-22.72,104-81.088,104-149.728S340.704,113,280,90.28z"/>
<path style="fill:#EDF1EA;" d="M124.16,353.136c-62.48-62.48-62.488-163.792,0-226.272C153.704,97.32,191.936,81.92,230.632,80.32
	c-43.136-1.784-86.848,13.616-119.776,46.544c-62.48,62.48-62.488,163.792,0,226.272c32.936,32.936,76.648,48.328,119.784,46.544
	C191.944,398.08,153.712,382.688,124.16,353.136z"/>
<path style="fill:#BCC5B8;" d="M176,240c0-5.968,0.44-11.824,1.08-17.624c-4.944,3.664-10.992,5.904-17.6,5.904
	c-16.384,0-29.712-13.328-29.712-29.712s13.328-29.712,29.712-29.712c11.52,0,21.408,6.648,26.336,16.256
	c2.16-5.88,4.56-11.632,7.368-17.168c-8.368-9.2-20.312-15.088-33.704-15.088c-25.216,0-45.712,20.496-45.712,45.712
	s20.496,45.712,45.712,45.712c5.856,0,11.416-1.2,16.568-3.216C176.04,240.712,176,240.36,176,240z"/>
<path style="fill:#B3BDB2;" d="M285.904,293.144c10.08,0,18.288,8.2,18.288,18.288c0,10.08-8.2,18.288-18.288,18.288
	c-10.088,0-18.288-8.2-18.288-18.288C267.616,301.352,275.824,293.144,285.904,293.144 M285.904,277.144
	c-18.912,0-34.288,15.376-34.288,34.288s15.376,34.288,34.288,34.288s34.288-15.376,34.288-34.288S304.816,277.144,285.904,277.144z
	"/>
<circle style="fill:#BCC5B8;" cx="175.424" cy="311.432" r="11.432"/>
<g>
	<circle style="fill:#B3BDB2;" cx="234.32" cy="138.288" r="5.712"/>
	<circle style="fill:#B3BDB2;" cx="239.24" cy="234.256" r="5.712"/>
</g>
<circle style="fill:#BCC5B8;" cx="114" cy="277.584" r="5.712"/>
<circle style="fill:#B3BDB2;" cx="330.64" cy="247.784" r="5.712"/>
<circle style="fill:#BCC5B8;" cx="205.424" cy="361.136" r="5.712"/>
<circle style="fill:#B3BDB2;" cx="292.568" cy="171.432" r="20"/>
<path style="fill:#A7B0A6;" d="M189.192,198.576c0,9.776-4.808,18.392-12.112,23.808C176.44,228.176,176,234.032,176,240
	c0,0.36,0.04,0.712,0.04,1.064c17.016-6.656,29.152-23.136,29.152-42.496c0-11.824-4.624-22.504-12.008-30.624
	c-2.808,5.528-5.208,11.288-7.368,17.168C187.896,189.176,189.192,193.704,189.192,198.576z"/>
<g>
	<path style="fill:#010101;" d="M48,240c0,97.048,78.952,176,176,176s176-78.952,176-176S321.048,64,224,64S48,142.96,48,240z
		 M64,240c0-88.368,71.632-160,160-160c40.52,0,77.408,15.184,105.6,40.016H256c-4.416,0-8,3.584-8,8c0,4.416,3.584,8,8,8h89.456
		c10.24,11.944,18.768,25.384,25.152,40H224c-4.416,0-8,3.584-8,8s3.584,8,8,8h152.656c3.992,12.704,6.256,26.144,6.944,40H208
		c-4.416,0-8,3.584-8,8s3.584,8,8,8h176c-0.696,14.04-3.448,27.64-7.536,40.504H224c-4.416,0-8,3.584-8,8
		c0,4.416,3.584,7.496,8,7.496l146.344,0.504c-6.36,14.416-14.792,27.688-24.92,39.496H256c-4.416,0-8,3.584-8,8s3.584,8,8,8h73.568
		C301.384,384.832,264.504,400,224,400C135.632,400,64,328.368,64,240z"/>
	<circle style="fill:#010101;" cx="224" cy="128.496" r="8"/>
	<circle style="fill:#010101;" cx="192" cy="184.016" r="8"/>
	<circle style="fill:#010101;" cx="176" cy="239.512" r="8"/>
	<circle style="fill:#010101;" cx="192" cy="295.512" r="8"/>
	<circle style="fill:#010101;" cx="224" cy="350.504" r="8"/>
</g>
<g>
	<path style="fill:#FCD95F;" d="M400,0c0,36.768-27.232,64-64,64c36.768,0,64,27.224,64,64c0-36.776,27.232-64,64-64
		C427.224,64,400,36.776,400,0z"/>
	<path style="fill:#FCD95F;" d="M370.064,64c12.92,6.616,23.312,17.016,29.936,29.944c6.624-12.928,17.016-23.328,29.936-29.944
		c-12.92-6.616-23.312-17.016-29.936-29.944C393.376,46.984,382.984,57.384,370.064,64z"/>
</g>
<path style="fill:#010101;" d="M400,49.184c4.232,5.6,9.216,10.584,14.816,14.816c-5.6,4.24-10.584,9.216-14.816,14.816
	c-4.232-5.6-9.216-10.584-14.816-14.816C390.784,59.768,395.76,54.784,400,49.184 M400,0c0,36.768-27.232,64-64,64
	c36.768,0,64,27.224,64,64c0-36.776,27.232-64,64-64C427.224,64,400,36.776,400,0z"/>
<g>
</g>
<g>
</g>
<g>
</g>
<g>
</g>
<g>
</g>
<g>
</g>
<g>
</g>
<g>
</g>
<g>
</g>
<g>
</g>
<g>
</g>
<g>
</g>
<g>
</g>
<g>
</g>
<g>
</g>
</svg>
