<?xml version="1.0" encoding="iso-8859-1"?>
<!-- Generator: Adobe Illustrator 19.0.0, SVG Export Plug-In . SVG Version: 6.00 Build 0)  -->
<svg version="1.1" id="Capa_1" xmlns="http://www.w3.org/2000/svg" xmlns:xlink="http://www.w3.org/1999/xlink" x="0px" y="0px"
	 viewBox="0 0 480.002 480.002" style="enable-background:new 0 0 480.002 480.002;" xml:space="preserve">
<g transform="matrix(0.7071 -0.7071 0.7071 0.7071 -15.962 31.464)">
	
		<ellipse transform="matrix(-0.7071 -0.7071 0.7071 -0.7071 -213.6311 568.4141)" style="fill:#FAFDFF;" cx="10.906" cy="328.451" rx="224" ry="224"/>
	
		<ellipse transform="matrix(-0.7071 -0.7071 0.7071 -0.7071 -213.6311 568.4141)" style="fill:#EAF6FD;" cx="10.906" cy="328.451" rx="192" ry="192"/>
	
		<ellipse transform="matrix(-0.7071 -0.7071 0.7071 -0.7071 -213.6311 568.4141)" style="fill:#D9E3D4;" cx="10.906" cy="328.451" rx="160" ry="160"/>
</g>
<path style="fill:#BFC9BE;" d="M182.802,101.532c-14.28,53.36-0.672,112.6,41.2,154.472s101.112,55.48,154.472,41.2
	c14.168-53.328,0.488-112.512-41.336-154.336S236.13,87.364,182.802,101.532z"/>
<path style="fill:#010101;" d="M64.002,0.004c0,18.384-13.616,32-32,32c18.384,0,32,13.616,32,32c0-18.384,13.616-32,32-32
	C77.618,32.004,64.002,18.388,64.002,0.004z"/>
<path style="fill:#EDF1EA;" d="M233.41,406.596c-88.368,0-160-71.632-160-160c0-41.784,16.152-79.704,42.376-108.2
	c-31.76,29.24-51.784,71.032-51.784,117.608c0,88.368,71.632,160,160,160c46.576,0,88.376-20.024,117.616-51.792
	C313.114,390.444,275.194,406.596,233.41,406.596z"/>
<path style="fill:#B3BDB2;" d="M305.354,249.804c7.128-7.128,18.728-7.128,25.856,0s7.128,18.728,0,25.856s-18.736,7.128-25.864,0
	C298.226,268.54,298.226,256.94,305.354,249.804 M294.042,238.492c-13.376,13.376-13.376,35.12,0,48.488
	c13.376,13.376,35.112,13.376,48.488,0c13.368-13.368,13.368-35.112,0-48.488C329.154,225.124,307.41,225.124,294.042,238.492z"/>
<ellipse style="fill:#BCC5B8;" cx="240.157" cy="340.849" rx="11.432" ry="11.432"/>
<g>
	<ellipse style="fill:#B3BDB2;" cx="159.347" cy="176.806" rx="5.712" ry="5.712"/>
	<ellipse style="fill:#B3BDB2;" cx="230.744" cy="241.196" rx="5.712" ry="5.712"/>
</g>
<ellipse style="fill:#BCC5B8;" cx="172.769" cy="360.334" rx="5.712" ry="5.712"/>
<ellipse style="fill:#B3BDB2;" cx="304.948" cy="186.081" rx="5.712" ry="5.712"/>
<ellipse style="fill:#BCC5B8;" cx="296.486" cy="354.811" rx="5.712" ry="5.712"/>
<ellipse style="fill:#B3BDB2;" cx="223.994" cy="159.028" rx="20" ry="20"/>
<path style="fill:#BCC5B8;" d="M128.074,251.324c11.584-11.584,30.44-11.584,42.024,0s11.584,30.432,0,42.024
	c-11.584,11.584-30.44,11.584-42.024,0S116.49,262.908,128.074,251.324 M116.762,240.012c-17.832,17.832-17.832,46.824,0,64.648
	c17.832,17.832,46.824,17.832,64.648,0s17.832-46.824,0-64.648C163.578,222.18,134.586,222.18,116.762,240.012z"/>
<g>
	<ellipse style="fill:#010101;" cx="179.111" cy="143.234" rx="8" ry="8"/>
	<ellipse style="fill:#010101;" cx="195.719" cy="205.091" rx="8" ry="8"/>
	<path style="fill:#010101;" d="M99.554,380.452c68.624,68.624,180.28,68.624,248.904,0s68.624-180.28,0-248.904
		s-180.28-68.624-248.904,0S30.93,311.836,99.554,380.452z M110.866,369.14c-62.488-62.488-62.488-163.792,0-226.272
		c28.656-28.648,65.472-44,102.968-46.376l-18.104,18.104c-3.12,3.12-3.128,8.192,0,11.312c3.12,3.12,8.192,3.12,11.312,0
		l29.312-29.312c15.688,1.208,31.224,4.68,46.072,10.496l-69.728,69.728c-3.12,3.12-3.128,8.192,0,11.312
		c3.12,3.12,8.192,3.12,11.312,0l74-74c11.808,6.16,22.912,14.064,33.192,23.376l-90.216,90.224c-3.12,3.12-3.128,8.192,0,11.312
		c3.12,3.128,8.192,3.128,11.312,0l90.224-90.224c9.44,10.424,17.4,21.696,23.6,33.68l-73.864,73.864
		c-3.12,3.12-3.128,8.192,0,11.312c3.12,3.12,8.192,3.12,11.312,0l69.544-69.544c5.696,14.696,9.12,30.04,10.312,45.552
		L354.13,272.98c-3.12,3.128-3.128,8.192,0,11.312c3.12,3.128,8.192,3.128,11.312,0l18.08-18.08
		c-2.384,37.48-17.728,74.28-46.376,102.928C274.658,431.628,173.354,431.628,110.866,369.14z"/>
	<ellipse style="fill:#010101;" cx="223.655" cy="255.656" rx="8" ry="8"/>
	<ellipse style="fill:#010101;" cx="274.558" cy="283.939" rx="8" ry="8"/>
	<ellipse style="fill:#010101;" cx="336.079" cy="300.202" rx="8" ry="8"/>
</g>
<g>
	<path style="fill:#FCD95F;" d="M416.002,0.004c0,36.768-27.232,64-64,64c36.768,0,64,27.224,64,64c0-36.776,27.232-64,64-64
		C443.234,64.004,416.002,36.772,416.002,0.004z"/>
	<path style="fill:#FCD95F;" d="M386.066,64.004c12.92,6.616,23.312,17.016,29.936,29.944c6.624-12.928,17.016-23.328,29.936-29.944
		c-12.92-6.616-23.312-17.016-29.936-29.944C409.378,46.988,398.986,57.388,386.066,64.004z"/>
</g>
<path style="fill:#010101;" d="M416.002,49.188c4.232,5.6,9.216,10.584,14.816,14.816c-5.6,4.24-10.584,9.216-14.816,14.816
	c-4.232-5.6-9.216-10.584-14.816-14.816C406.786,59.764,411.77,54.788,416.002,49.188 M416.002,0.004c0,36.768-27.232,64-64,64
	c36.768,0,64,27.224,64,64c0-36.776,27.232-64,64-64C443.234,64.004,416.002,36.772,416.002,0.004z"/>
<g>
</g>
<g>
</g>
<g>
</g>
<g>
</g>
<g>
</g>
<g>
</g>
<g>
</g>
<g>
</g>
<g>
</g>
<g>
</g>
<g>
</g>
<g>
</g>
<g>
</g>
<g>
</g>
<g>
</g>
</svg>
