<?xml version="1.0" encoding="iso-8859-1"?>
<!-- Generator: Adobe Illustrator 19.0.0, SVG Export Plug-In . SVG Version: 6.00 Build 0)  -->
<svg version="1.1" id="Capa_1" xmlns="http://www.w3.org/2000/svg" xmlns:xlink="http://www.w3.org/1999/xlink" x="0px" y="0px"
	 viewBox="0 0 465.184 465.184" style="enable-background:new 0 0 465.184 465.184;" xml:space="preserve">
<circle style="fill:#FAFDFF;" cx="224" cy="240.592" r="224"/>
<circle style="fill:#EAF6FD;" cx="224" cy="240.592" r="192"/>
<circle style="fill:#D9E3D4;" cx="224" cy="240.592" r="160"/>
<path style="fill:#BFC9BE;" d="M224,80.592v320c88.368,0,160-71.632,160-160C384,152.232,312.368,80.592,224,80.592z"/>
<path style="fill:#010101;" d="M32,16.592c0,18.384-13.616,32-32,32c18.384,0,32,13.616,32,32c0-18.384,13.616-32,32-32
	C45.616,48.592,32,34.984,32,16.592z"/>
<path style="fill:#EDF1EA;" d="M124.16,353.728c-62.48-62.48-62.488-163.792,0-226.272c29.544-29.544,67.776-44.944,106.472-46.544
	c-43.136-1.784-86.848,13.616-119.776,46.544c-62.48,62.48-62.488,163.792,0,226.272c32.936,32.936,76.648,48.328,119.784,46.544
	C191.944,398.672,153.712,383.28,124.16,353.728z"/>
<path style="fill:#A7B0A6;" d="M285.904,293.736c10.08,0,18.288,8.2,18.288,18.288c0,10.08-8.2,18.288-18.288,18.288
	c-10.088,0-18.288-8.2-18.288-18.288C267.616,301.944,275.824,293.736,285.904,293.736 M285.904,277.736
	c-18.912,0-34.288,15.376-34.288,34.288s15.376,34.288,34.288,34.288s34.288-15.376,34.288-34.288S304.816,277.736,285.904,277.736z
	"/>
<circle style="fill:#BCC5B8;" cx="175.432" cy="312.024" r="11.432"/>
<g>
	<circle style="fill:#A7B0A6;" cx="250.32" cy="128.592" r="5.712"/>
	<circle style="fill:#A7B0A6;" cx="239.24" cy="234.912" r="5.712"/>
</g>
<circle style="fill:#BCC5B8;" cx="114" cy="278.176" r="5.712"/>
<circle style="fill:#A7B0A6;" cx="330.64" cy="248.376" r="5.712"/>
<circle style="fill:#BCC5B8;" cx="205.432" cy="361.712" r="5.712"/>
<circle style="fill:#A7B0A6;" cx="292.568" cy="172.024" r="20"/>
<path style="fill:#BCC5B8;" d="M159.712,169.456c16.384,0,29.712,13.328,29.712,29.712s-13.328,29.712-29.712,29.712
	S130,215.552,130,199.168S143.328,169.456,159.712,169.456 M159.712,153.456c-25.216,0-45.712,20.496-45.712,45.712
	s20.496,45.712,45.712,45.712s45.712-20.496,45.712-45.712C205.432,173.952,184.928,153.456,159.712,153.456z"/>
<g>
	<path style="fill:#010101;" d="M224,416.592c97.048,0,176-78.952,176-176s-78.952-176-176-176s-176,78.952-176,176
		S126.952,416.592,224,416.592z M224,80.592c40.504,0,77.384,15.168,105.568,39.984H256c-4.416,0-8,3.584-8,8s3.584,8,8,8h89.432
		c10.128,11.808,18.552,25.08,24.92,39.496H256c-4.416,0-8,3.584-8,8s3.584,8,8,8h120.464c4.088,12.864,6.432,26.464,7.128,40.504
		H256c-4.416,0-8,3.584-8,8s3.584,8,8,8h127.6c-0.688,13.856-2.952,27.288-6.944,40H256c-4.416,0-8,3.584-8,8c0,4.416,3.584,8,8,8
		h114.608c-6.384,14.616-14.912,28.056-25.152,40H256c-4.416,0-8,3.584-8,8c0,4.416,3.584,8,8,8h73.6
		c-28.192,24.84-65.08,40.016-105.6,40.016c-88.368,0-160-71.632-160-160C64,152.232,135.632,80.592,224,80.592z"/>
	<circle style="fill:#010101;" cx="224" cy="352.08" r="8"/>
	<circle style="fill:#010101;" cx="224" cy="296.584" r="8"/>
	<circle style="fill:#010101;" cx="224" cy="241.072" r="8"/>
	<circle style="fill:#010101;" cx="224" cy="185.072" r="8"/>
	<circle style="fill:#010101;" cx="224" cy="130.112" r="8"/>
</g>
<g>
	<path style="fill:#FCD95F;" d="M401.184,0.592c0,36.768-27.232,64-64,64c36.768,0,64,27.224,64,64c0-36.776,27.232-64,64-64
		C428.408,64.592,401.184,37.36,401.184,0.592z"/>
	<path style="fill:#FCD95F;" d="M371.24,64.592c12.92,6.616,23.312,17.016,29.936,29.944c6.624-12.928,17.016-23.328,29.936-29.944
		c-12.92-6.616-23.312-17.016-29.936-29.944C394.56,47.576,384.168,57.976,371.24,64.592z"/>
</g>
<path style="fill:#010101;" d="M401.184,49.768c4.232,5.608,9.216,10.584,14.816,14.824c-5.6,4.24-10.584,9.216-14.816,14.816
	c-4.232-5.6-9.216-10.584-14.816-14.816C391.968,60.352,396.944,55.376,401.184,49.768 M401.184,0.592c0,36.768-27.232,64-64,64
	c36.768,0,64,27.224,64,64c0-36.776,27.232-64,64-64C428.408,64.592,401.184,37.36,401.184,0.592z"/>
<g>
</g>
<g>
</g>
<g>
</g>
<g>
</g>
<g>
</g>
<g>
</g>
<g>
</g>
<g>
</g>
<g>
</g>
<g>
</g>
<g>
</g>
<g>
</g>
<g>
</g>
<g>
</g>
<g>
</g>
</svg>
