<?xml version="1.0" encoding="iso-8859-1"?>
<!-- Generator: Adobe Illustrator 19.0.0, SVG Export Plug-In . SVG Version: 6.00 Build 0)  -->
<svg version="1.1" id="Capa_1" xmlns="http://www.w3.org/2000/svg" xmlns:xlink="http://www.w3.org/1999/xlink" x="0px" y="0px"
	 viewBox="0 0 464 464" style="enable-background:new 0 0 464 464;" xml:space="preserve">
<circle style="fill:#FAFDFF;" cx="224" cy="240" r="224"/>
<circle style="fill:#EAF6FD;" cx="224" cy="240" r="192"/>
<circle style="fill:#D9E3D4;" cx="224" cy="240" r="160"/>
<path style="fill:#BFC9BE;" d="M64,240c0,88.368,71.632,160,160,160V80C135.632,80,64,151.64,64,240z"/>
<path style="fill:#010101;" d="M32,16c0,18.384-13.616,32-32,32c18.384,0,32,13.616,32,32c0-18.384,13.616-32,32-32
	C45.616,48,32,34.392,32,16z"/>
<path style="fill:#EDF1EA;" d="M323.84,126.864c62.48,62.48,62.488,163.792,0,226.272c-29.544,29.544-67.776,44.944-106.48,46.544
	c43.136,1.784,86.848-13.616,119.776-46.544c62.48-62.48,62.488-163.792,0-226.272C304.2,93.928,260.488,78.536,217.352,80.32
	C256.056,81.928,294.288,97.32,323.84,126.864z"/>
<path style="fill:#BCC5B8;" d="M285.904,300c6.304,0,11.432,5.128,11.432,11.432s-5.128,11.432-11.432,11.432
	c-6.304,0-11.432-5.128-11.432-11.432S279.6,300,285.904,300 M285.904,277.144c-18.912,0-34.288,15.376-34.288,34.288
	s15.376,34.288,34.288,34.288s34.288-15.376,34.288-34.288S304.816,277.144,285.904,277.144z"/>
<circle style="fill:#A7B0A6;" cx="175.432" cy="311.432" r="11.432"/>
<g>
	<circle style="fill:#BCC5B8;" cx="261.712" cy="117.72" r="5.712"/>
	<circle style="fill:#BCC5B8;" cx="256" cy="218.32" r="5.712"/>
</g>
<circle style="fill:#A7B0A6;" cx="98.568" cy="269.72" r="5.712"/>
<circle style="fill:#BCC5B8;" cx="330.64" cy="247.784" r="5.712"/>
<circle style="fill:#A7B0A6;" cx="202.32" cy="378.32" r="5.712"/>
<circle style="fill:#BCC5B8;" cx="292.568" cy="171.432" r="20"/>
<path style="fill:#EDF1EA;" d="M279.024,171.432c0-9.904,7.328-17.752,16.776-19.352c-1.096-0.184-2.08-0.648-3.224-0.648
	c-11.04,0-20,8.952-20,20s8.96,20,20,20c1.144,0,2.136-0.464,3.224-0.648C286.352,189.184,279.024,181.336,279.024,171.432z"/>
<path style="fill:#A7B0A6;" d="M159.712,175.72c12.608,0,22.856,10.256,22.856,22.856s-10.256,22.856-22.856,22.856
	s-22.856-10.256-22.856-22.856S147.112,175.72,159.712,175.72 M159.712,152.864c-25.216,0-45.712,20.496-45.712,45.712
	s20.496,45.712,45.712,45.712s45.712-20.496,45.712-45.712C205.432,173.36,184.928,152.864,159.712,152.864z"/>
<g>
	<path style="fill:#010101;" d="M224,64c-97.048,0-176,78.96-176,176s78.952,176,176,176s176-78.952,176-176S321.048,64,224,64z
		 M224,400c-40.504,0-77.384-15.168-105.568-39.984H192c4.416,0,8-3.584,8-8s-3.584-8-8-8h-89.432
		c-10.128-11.808-18.552-25.08-24.92-39.496H192c4.416,0,8-3.584,8-8s-3.584-8-8-8H71.536c-4.088-12.864-6.432-26.464-7.128-40.504
		H192c4.416,0,8-3.584,8-8s-3.584-8-8-8H64.4c0.688-13.856,2.952-27.288,6.944-40H192c4.416,0,8-3.584,8-8s-3.584-8-8-8H77.392
		c6.384-14.616,14.912-28.056,25.152-40H192c4.416,0,8-3.584,8-8s-3.584-8-8-8h-73.6C146.592,95.184,183.48,80,224,80
		c88.368,0,160,71.632,160,160S312.368,400,224,400z"/>
	<circle style="fill:#010101;" cx="224" cy="128.56" r="8"/>
	<circle style="fill:#010101;" cx="224" cy="184" r="8"/>
	<circle style="fill:#010101;" cx="224" cy="239.512" r="8"/>
	<circle style="fill:#010101;" cx="224" cy="295.512" r="8"/>
	<circle style="fill:#010101;" cx="224" cy="350.504" r="8"/>
</g>
<g>
	<path style="fill:#FCD95F;" d="M400,0c0,36.768-27.232,64-64,64c36.768,0,64,27.224,64,64c0-36.776,27.232-64,64-64
		C427.232,64,400,36.768,400,0z"/>
	<path style="fill:#FCD95F;" d="M370.064,64c12.92,6.616,23.312,17.016,29.936,29.944c6.624-12.928,17.016-23.328,29.936-29.944
		c-12.92-6.616-23.312-17.016-29.936-29.944C393.376,46.984,382.984,57.384,370.064,64z"/>
</g>
<path style="fill:#010101;" d="M400,49.176c4.232,5.6,9.216,10.584,14.816,14.816c-5.6,4.24-10.584,9.216-14.816,14.816
	c-4.232-5.6-9.216-10.584-14.816-14.816C390.784,59.76,395.768,54.784,400,49.176 M400,0c0,36.768-27.232,64-64,64
	c36.768,0,64,27.224,64,64c0-36.776,27.232-64,64-64C427.232,64,400,36.768,400,0z"/>
<g>
</g>
<g>
</g>
<g>
</g>
<g>
</g>
<g>
</g>
<g>
</g>
<g>
</g>
<g>
</g>
<g>
</g>
<g>
</g>
<g>
</g>
<g>
</g>
<g>
</g>
<g>
</g>
<g>
</g>
</svg>
