<?xml version="1.0" encoding="iso-8859-1"?>
<!-- Generator: Adobe Illustrator 19.0.0, SVG Export Plug-In . SVG Version: 6.00 Build 0)  -->
<svg version="1.1" id="Capa_1" xmlns="http://www.w3.org/2000/svg" xmlns:xlink="http://www.w3.org/1999/xlink" x="0px" y="0px"
	 viewBox="0 0 464 464" style="enable-background:new 0 0 464 464;" xml:space="preserve">
<circle style="fill:#FAFDFF;" cx="224" cy="240" r="224"/>
<circle style="fill:#EAF6FD;" cx="224" cy="240" r="192"/>
<path style="fill:#010101;" d="M32,16c0,18.384-13.616,32-32,32c18.384,0,32,13.616,32,32c0-18.384,13.616-32,32-32
	C45.616,48,32,34.384,32,16z"/>
<circle style="fill:#D9E3D4;" cx="224" cy="240" r="160"/>
<path style="fill:#EDF1EA;" d="M323.832,126.864c62.48,62.48,62.488,163.792,0,226.272c-29.544,29.544-67.776,44.944-106.472,46.544
	c43.136,1.784,86.848-13.616,119.776-46.544c62.48-62.48,62.488-163.792,0-226.272C304.2,93.928,260.488,78.536,217.352,80.32
	C256.048,81.92,294.288,97.312,323.832,126.864z"/>
<g>
	<path style="fill:#231F20;" d="M159.472,168.856c16.384,0,29.712,13.328,29.712,29.712s-13.328,29.712-29.712,29.712
		s-29.712-13.328-29.712-29.712S143.088,168.856,159.472,168.856 M159.472,152.856c-25.216,0-45.712,20.496-45.712,45.712
		s20.496,45.712,45.712,45.712s45.712-20.504,45.712-45.712C205.192,173.36,184.688,152.856,159.472,152.856z"/>
	<path style="fill:#231F20;" d="M285.904,293.144c10.08,0,18.288,8.2,18.288,18.288s-8.2,18.288-18.288,18.288
		c-10.088,0-18.288-8.2-18.288-18.288S275.824,293.144,285.904,293.144 M285.904,277.144c-18.912,0-34.288,15.376-34.288,34.288
		s15.376,34.288,34.288,34.288s34.288-15.376,34.288-34.288C320.192,292.52,304.816,277.144,285.904,277.144z"/>
	<circle style="fill:#231F20;" cx="175.424" cy="311.432" r="11.432"/>
	<circle style="fill:#231F20;" cx="227.808" cy="132.856" r="5.712"/>
	<circle style="fill:#231F20;" cx="239.24" cy="234.32" r="5.712"/>
	<circle style="fill:#231F20;" cx="114" cy="277.584" r="5.712"/>
	<circle style="fill:#231F20;" cx="330.64" cy="247.784" r="5.712"/>
	<circle style="fill:#231F20;" cx="205.424" cy="361.12" r="5.712"/>
	<circle style="fill:#231F20;" cx="292.568" cy="171.432" r="20"/>
	<path style="fill:#231F20;" d="M224,80c88.368,0,160,71.632,160,160s-71.632,160-160,160S64,328.368,64,240S135.632,80,224,80
		 M224,64c-97.048,0-176,78.952-176,176s78.952,176,176,176s176-78.952,176-176S321.048,64,224,64z"/>
</g>
<g>
	<path style="fill:#FCD95F;" d="M400,0c0,36.768-27.232,64-64,64c36.768,0,64,27.224,64,64c0-36.776,27.232-64,64-64
		C427.232,64,400,36.768,400,0z"/>
	<path style="fill:#FCD95F;" d="M370.064,64c12.92,6.616,23.312,17.016,29.936,29.944c6.624-12.928,17.016-23.328,29.936-29.944
		c-12.92-6.616-23.312-17.016-29.936-29.944C393.376,46.984,382.984,57.384,370.064,64z"/>
</g>
<path style="fill:#010101;" d="M400,49.184c4.24,5.6,9.216,10.584,14.816,14.816c-5.6,4.24-10.584,9.216-14.816,14.816
	c-4.232-5.6-9.216-10.584-14.816-14.816C390.784,59.76,395.76,54.784,400,49.184 M400,0c0,36.768-27.232,64-64,64
	c36.768,0,64,27.224,64,64c0-36.776,27.232-64,64-64C427.232,64,400,36.768,400,0z"/>
<g>
</g>
<g>
</g>
<g>
</g>
<g>
</g>
<g>
</g>
<g>
</g>
<g>
</g>
<g>
</g>
<g>
</g>
<g>
</g>
<g>
</g>
<g>
</g>
<g>
</g>
<g>
</g>
<g>
</g>
</svg>
