<?xml version="1.0" encoding="iso-8859-1"?>
<!-- Generator: Adobe Illustrator 19.0.0, SVG Export Plug-In . SVG Version: 6.00 Build 0)  -->
<svg version="1.1" id="Capa_1" xmlns="http://www.w3.org/2000/svg" xmlns:xlink="http://www.w3.org/1999/xlink" x="0px" y="0px"
	 viewBox="0 0 464 464" style="enable-background:new 0 0 464 464;" xml:space="preserve">
<g>
	<path style="fill:#B7CEEB;" d="M392,256H25.264c-13.248,0-24-10.744-24-24c0-13.256,10.752-24,24-24H344c-13.248,0-24-10.744-24-24
		c0-39.704,32.296-72,72-72s72,32.296,72,72S431.704,256,392,256z M344,208h48c13.232,0,24-10.768,24-24s-10.768-24-24-24
		s-24,10.768-24,24C368,197.256,357.248,208,344,208z"/>
	<path style="fill:#B7CEEB;" d="M232,192H24c-13.248,0-24-10.744-24-24s10.752-24,24-24h160c-13.248,0-24-10.744-24-24
		c0-39.704,32.296-72,72-72s72,32.296,72,72S271.704,192,232,192z M184,144h48c13.232,0,24-10.768,24-24s-10.768-24-24-24
		s-24,10.768-24,24C208,133.256,197.248,144,184,144z"/>
	<path style="fill:#B7CEEB;" d="M232,416c-39.704,0-72-32.296-72-72c0-13.256,10.752-24,24-24s24,10.744,24,24
		c0,13.232,10.768,24,24,24s24-10.768,24-24s-10.768-24-24-24H24c-13.248,0-24-10.744-24-24s10.752-24,24-24h208
		c39.704,0,72,32.296,72,72S271.704,416,232,416z"/>
</g>
<g>
	<path style="fill:#010101;" d="M392,240H25.264c-4.424,0-8-3.576-8-8c0-4.424,3.576-8,8-8H392c22.064,0,40-17.944,40-40
		s-17.936-40-40-40s-40,17.944-40,40c0,4.424-3.576,8-8,8s-8-3.576-8-8c0-30.872,25.128-56,56-56s56,25.128,56,56
		S422.872,240,392,240z"/>
	<path style="fill:#010101;" d="M232,176H24c-4.424,0-8-3.576-8-8s3.576-8,8-8h208c22.064,0,40-17.944,40-40s-17.936-40-40-40
		s-40,17.944-40,40c0,4.424-3.576,8-8,8s-8-3.576-8-8c0-30.872,25.128-56,56-56s56,25.128,56,56S262.872,176,232,176z"/>
	<path style="fill:#010101;" d="M232,400c-30.872,0-56-25.128-56-56c0-4.424,3.576-8,8-8s8,3.576,8,8c0,22.056,17.936,40,40,40
		s40-17.944,40-40s-17.936-40-40-40H24c-4.424,0-8-3.576-8-8s3.576-8,8-8h208c30.872,0,56,25.128,56,56S262.872,400,232,400z"/>
</g>
<g>
</g>
<g>
</g>
<g>
</g>
<g>
</g>
<g>
</g>
<g>
</g>
<g>
</g>
<g>
</g>
<g>
</g>
<g>
</g>
<g>
</g>
<g>
</g>
<g>
</g>
<g>
</g>
<g>
</g>
</svg>
