<?xml version="1.0" encoding="iso-8859-1"?>
<!-- Generator: Adobe Illustrator 19.0.0, SVG Export Plug-In . SVG Version: 6.00 Build 0)  -->
<svg version="1.1" id="Capa_1" xmlns="http://www.w3.org/2000/svg" xmlns:xlink="http://www.w3.org/1999/xlink" x="0px" y="0px"
	 viewBox="0 0 448 448" style="enable-background:new 0 0 448 448;" xml:space="preserve">
<g>
	<path style="fill:#DFE9F7;" d="M158.832,440c-57.48,0-104.248-46.744-104.248-104.192c0-27.328,9.808-53.544,32.128-76.552V78.784
		C86.712,39.096,118.32,8,158.68,8c39.736,0,72.048,32.392,72.048,72.192v180.16c22.256,22.792,32.376,47.776,32.376,75.456
		C263.096,393.256,216.336,440,158.832,440z"/>
	<rect x="126.584" y="64" style="fill:#DFE9F7;" width="64" height="96"/>
</g>
<path style="fill:#D64230;" d="M190.584,280.88V160h-64v120.88c-19.048,11.088-32,31.496-32,55.12c0,35.344,28.656,64,64,64
	s64-28.656,64-64C222.584,312.368,209.632,291.96,190.584,280.88z"/>
<g>
	<path style="fill:#010101;" d="M238.584,257.088V80.192C238.584,35.904,203,0,158.68,0c-44.288,0-79.968,34.496-79.968,78.784V256
		c-19.744,20.256-32.128,49.28-32.128,79.808C46.584,397.744,96.84,448,158.84,448c61.968,0,112.256-50.256,112.256-112.192
		C271.096,305.12,258.456,277.376,238.584,257.088z M158.84,432c-53.072,0-96.256-43.152-96.256-96.192
		c0-30.664,12.168-52.96,32-73.304V78.784C94.584,43.576,122.808,16,158.68,16c35.32,0,64.048,28.792,64.048,64.192
		c0,69.024,0,112.912,0,183.424c20.048,20.464,32.368,41.872,32.368,72.192C255.096,388.848,211.92,432,158.84,432z"/>
	<polygon style="fill:#010101;" points="350.584,64 299.752,114.824 311.072,126.136 342.584,94.624 342.584,184 358.584,184 
		358.584,94.624 390.096,126.136 401.416,114.824 	"/>
</g>
<g>
</g>
<g>
</g>
<g>
</g>
<g>
</g>
<g>
</g>
<g>
</g>
<g>
</g>
<g>
</g>
<g>
</g>
<g>
</g>
<g>
</g>
<g>
</g>
<g>
</g>
<g>
</g>
<g>
</g>
</svg>
