<?xml version="1.0" encoding="iso-8859-1"?>
<!-- Generator: Adobe Illustrator 19.0.0, SVG Export Plug-In . SVG Version: 6.00 Build 0)  -->
<svg version="1.1" id="Capa_1" xmlns="http://www.w3.org/2000/svg" xmlns:xlink="http://www.w3.org/1999/xlink" x="0px" y="0px"
	 viewBox="0 0 448.006 448.006" style="enable-background:new 0 0 448.006 448.006;" xml:space="preserve">
<path style="fill:#DFE9F7;" d="M112.248,440.003C54.768,440.003,8,393.259,8,335.811c0-27.328,9.808-53.544,32.128-76.552V78.787
	c0-39.688,31.608-70.784,71.968-70.784c39.736,0,72.048,32.392,72.048,72.192v180.16c22.256,22.792,32.376,47.776,32.376,75.456
	C216.52,393.259,169.752,440.003,112.248,440.003z"/>
<path style="fill:#FCF1CE;" d="M408.36,203.139c1.544-7.816,6.344-14.64,13.184-18.744l14-8.4l-14-8.408
	c-6.832-4.088-11.624-10.904-13.168-18.696c-1.56-7.816,0.264-15.96,5.016-22.368l9.704-13.128l-16.144-2.4
	c-7.872-1.168-14.92-5.632-19.344-12.24c-4.424-6.624-5.84-14.848-3.92-22.568l3.952-15.832l-15.84,3.96
	c-2.248,0.56-4.56,0.848-6.872,0.848c-13.872,0-25.872-10.368-27.92-24.112L334.6,24.899l-13.128,9.728
	c-4.904,3.632-10.72,5.552-16.8,5.552c-10.048,0-19.112-5.136-24.264-13.728l-8.408-14l-8.408,14
	c-5.16,8.592-14.216,13.728-24.248,13.728c-6.096,0-11.888-1.92-16.816-5.552L209.4,24.899l-2.392,16.152
	c-1.88,12.624-12.168,22.288-24.592,23.808c1.08,4.952,1.72,10.064,1.72,15.344v180.16c18.632,19.08,28.648,39.72,31.456,62.16
	l6.936-5.136c4.904-3.64,10.72-5.56,16.816-5.56c10.032,0,19.096,5.136,24.248,13.728L272,339.547l8.408-14.008
	c5.16-8.592,14.216-13.728,24.248-13.728c6.096,0,11.904,1.928,16.816,5.56l13.128,9.728l2.408-16.16
	c2.048-13.752,14.048-24.112,27.92-24.112c2.312,0,4.624,0.28,6.872,0.848l15.872,4.064l-3.984-15.944
	c-1.92-7.72-0.496-15.944,3.92-22.56c4.408-6.616,11.472-11.088,19.344-12.256l16.144-2.4l-9.704-13.12
	C408.64,219.091,406.816,210.947,408.36,203.139z"/>
<path style="fill:#F9DB7B;" d="M272,72.003c-36.968,0-69.416,19.456-87.856,48.6v110.8c18.448,29.144,50.888,48.6,87.856,48.6
	c57.344,0,104-46.656,104-104S329.344,72.003,272,72.003z"/>
<path style="fill:#E4D9B9;" d="M200.216,55.075c-4.528,5.208-10.704,8.92-17.792,9.784c1.08,4.952,1.72,10.064,1.72,15.344v180.16
	c18.632,19.08,28.648,39.72,31.456,62.16l6.936-5.136c4.904-3.64,10.72-5.56,16.816-5.56c10.032,0,19.096,5.136,24.248,13.728
	l8.4,13.992l8.408-14.008c5.16-8.592,14.216-13.728,24.248-13.728c6.096,0,11.904,1.928,16.816,5.56l13.128,9.728l2.408-16.16
	c2.048-13.752,14.048-24.112,27.92-24.112c2.312,0,4.624,0.28,6.872,0.848l15.872,4.064l-3.984-15.944
	c-1.92-7.72-0.496-15.944,3.92-22.56c1.432-2.152,3.216-3.968,5.152-5.624L200.216,55.075z"/>
<path style="fill:#E0C56E;" d="M272,280.003c41.352,0,77.032-24.32,93.784-59.352L227.44,82.307
	c-17.752,8.512-32.832,21.752-43.304,38.296v110.8C202.584,260.547,235.032,280.003,272,280.003z"/>
<path style="fill:#DFE9F7;" d="M112.248,440.003C54.768,440.003,8,393.259,8,335.811c0-27.328,9.808-53.544,32.128-76.552V78.787
	c0-39.688,31.608-70.784,71.968-70.784c39.736,0,72.048,32.392,72.048,72.192v180.16c22.256,22.792,32.376,47.776,32.376,75.456
	C216.52,393.259,169.752,440.003,112.248,440.003z"/>
<path style="fill:#010101;" d="M425.664,191.259l20.752-12.448c2.12-1.272,2.12-4.352,0-5.624l-20.744-12.448
	c-10.264-6.16-12.984-19.824-5.856-29.448l14.4-19.44c1.472-1.992,0.296-4.832-2.152-5.2l-23.936-3.56
	c-11.84-1.76-19.584-13.352-16.68-24.96l5.872-23.472c0.528-2.128-1.12-4.08-3.168-4.08c-0.664,0-23.64,5.808-24.28,5.968
	c-11.648,2.912-23.208-4.896-24.96-16.68c-5.168-34.752-0.32-32.344-28.2-11.68c-3.64,2.696-7.864,3.984-12.04,3.984
	c-6.848,0-13.576-3.464-17.4-9.84L274.824,1.587c-0.648-1.056-1.736-1.584-2.824-1.584s-2.176,0.528-2.816,1.592l-12.448,20.744
	c-3.824,6.376-10.552,9.84-17.408,9.84c-4.176,0-8.4-1.288-12.04-3.984c-1.416-1.048-19.656-15.056-21.384-15.056
	c-1.536,0-3,1.088-3.256,2.8l-3.56,23.936c-1.032,6.952-5.552,12.28-11.392,15.04c-10.576-31.816-40.176-54.912-75.6-54.912
	c-44.288,0-79.968,34.496-79.968,78.784v177.216C12.384,276.259,0,305.283,0,335.811c0,61.936,50.256,112.192,112.256,112.192
	c61.968,0,112.256-50.256,112.256-112.192c0-3.232-0.216-6.416-0.488-9.584l3.272-2.424c3.64-2.696,7.864-3.984,12.04-3.984
	c6.848,0,13.576,3.464,17.4,9.84l12.448,20.752c0.64,1.056,1.728,1.592,2.816,1.592s2.176-0.528,2.816-1.592l12.448-20.744
	c3.832-6.376,10.552-9.84,17.408-9.84c4.176,0,8.4,1.288,12.04,3.984l19.44,14.4c0.6,0.448,1.28,0.648,1.944,0.648
	c1.536,0,3-1.088,3.256-2.8l3.56-23.928c1.512-10.152,10.248-17.288,20.024-17.288c1.624,0,3.28,0.2,4.936,0.616l23.472,5.864
	c0.272,0.072,0.544,0.104,0.808,0.104c2.056,0,3.704-1.952,3.168-4.08l-5.872-23.472c-2.904-11.608,4.84-23.2,16.68-24.96
	l23.936-3.56c2.448-0.368,3.624-3.208,2.152-5.2l-14.408-19.44C412.68,211.083,415.4,197.419,425.664,191.259z M112.256,432.003
	C59.184,432.003,16,388.851,16,335.811c0-30.96,12.288-51.72,31.864-71.808L48,78.787c0-35.208,28.232-62.784,64.104-62.784
	c35.32,0,64.048,28.792,64.048,64.192c0,68.968,0,112.912,0,183.424c19.976,20.392,32.368,41.792,32.368,72.192
	C208.512,388.851,165.336,432.003,112.256,432.003z M400.52,201.563c-2.416,12.16,1.168,21.56,8.208,31.072
	c-11.704,1.744-20.888,5.848-27.776,16.16c-6.856,10.272-7.184,20.32-4.304,31.848c-4.304-1.08-6.96-1.816-11.72-1.816
	c-16.584,0-32.88,11.072-36.288,33.896c-7.416-5.496-13.784-8.912-23.968-8.912c-12.776,0-24.064,5.856-32.664,20.184
	c-8.552-14.272-19.832-20.184-32.664-20.184c-7.544,0-12.976,1.896-18.256,5.064c-4.952-19.848-15.088-37.656-28.936-51.792v-2.704
	c20.304,20.72,48.544,33.624,79.856,33.624c61.856,0,112-50.144,112-112s-50.144-112-112-112c-31.312,0-59.552,12.896-79.856,33.616
	V80.195c0-3.192-0.576-6.224-0.936-9.32c11.736-4.152,21.6-14.464,24.152-31.608c7.4,5.48,13.76,8.912,23.976,8.912
	c12.832,0,24.104-5.912,32.664-20.176c8.576,14.296,19.856,20.176,32.664,20.176c10.232,0,16.584-3.448,23.976-8.912
	c3.312,22.2,19.096,33.896,36.288,33.896c4.768,0,7.424-0.744,11.72-1.816c-2.872,11.48-2.584,21.536,4.304,31.848
	s16.072,14.424,27.784,16.16c-7.08,9.544-10.624,18.952-8.216,31.064c2.416,12.16,9.336,19.48,19.48,25.568
	C409.856,182.083,402.936,189.403,400.52,201.563z M192,228.859V123.147c17.2-25.92,46.632-43.144,80.008-43.144
	c52.936,0,96,43.064,96,96s-43.064,96-96,96C238.632,272.003,209.2,254.771,192,228.859z"/>
<rect x="80" y="64.003" style="fill:#C2D6EF;" width="64" height="96"/>
<path style="fill:#D64230;" d="M144,280.883v-120.88H80v120.88c-19.048,11.088-32,31.496-32,55.12c0,35.344,28.656,64,64,64
	s64-28.656,64-64C176,312.371,163.048,291.963,144,280.883z"/>
<g>
</g>
<g>
</g>
<g>
</g>
<g>
</g>
<g>
</g>
<g>
</g>
<g>
</g>
<g>
</g>
<g>
</g>
<g>
</g>
<g>
</g>
<g>
</g>
<g>
</g>
<g>
</g>
<g>
</g>
</svg>
