<?xml version="1.0" encoding="iso-8859-1"?>
<!-- Generator: Adobe Illustrator 19.0.0, SVG Export Plug-In . SVG Version: 6.00 Build 0)  -->
<svg version="1.1" id="Capa_1" xmlns="http://www.w3.org/2000/svg" xmlns:xlink="http://www.w3.org/1999/xlink" x="0px" y="0px"
	 viewBox="0 0 487.6 487.6" style="enable-background:new 0 0 487.6 487.6;" xml:space="preserve">
<polygon style="fill:#A4C4E7;" points="336.768,201.716 341.392,193.708 369.096,145.732 313.696,145.732 304.456,145.732 
	299.84,137.732 272.144,89.756 244.448,137.732 239.832,145.732 230.592,145.732 184.28,145.732 184.28,161.484 202.896,193.708 
	207.512,201.716 202.896,209.716 184.28,241.94 184.28,257.692 226.416,257.692 230.592,257.692 239.832,257.692 244.448,265.692 
	272.144,313.668 299.84,265.692 304.456,257.692 313.696,257.692 369.096,257.692 341.392,209.716 "/>
<g>
	<path style="fill:#010101;" d="M367.84,343.556c-13.232,0-24,10.768-24,24s10.768,24,24,24s24-10.768,24-24
		S381.08,343.556,367.84,343.556z M367.84,375.556c-4.424,0-8-3.584-8-8s3.576-8,8-8c4.416,0,8,3.584,8,8
		S372.256,375.556,367.84,375.556z"/>
	<path style="fill:#010101;" d="M463.6,177.764c-13.232,0-24,10.768-24,24s10.768,24,24,24s24-10.768,24-24
		S476.84,177.764,463.6,177.764z M463.6,209.764c-4.424,0-8-3.584-8-8s3.576-8,8-8c4.416,0,8,3.584,8,8
		S468.016,209.764,463.6,209.764z"/>
	<path style="fill:#010101;" d="M367.904,59.9c13.232,0,24-10.768,24-24s-10.768-24-24-24s-24,10.768-24,24
		S354.664,59.9,367.904,59.9z M367.904,27.9c4.416,0,8,3.584,8,8s-3.584,8-8,8c-4.424,0-8-3.584-8-8S363.48,27.9,367.904,27.9z"/>
</g>
<g>
	<path style="fill:#A4C4E7;" d="M176.44,343.556c-13.232,0-24,10.768-24,24s10.768,24,24,24s24-10.768,24-24
		S189.68,343.556,176.44,343.556z M176.44,375.556c-4.416,0-8-3.584-8-8s3.584-8,8-8c4.424,0,8,3.584,8,8
		S180.864,375.556,176.44,375.556z"/>
	<path style="fill:#A4C4E7;" d="M80.68,177.764c-13.232,0-24,10.768-24,24s10.768,24,24,24c13.232,0,24-10.768,24-24
		S93.92,177.764,80.68,177.764z M80.68,209.764c-4.416,0-8-3.584-8-8s3.584-8,8-8c4.424,0,8,3.584,8,8S85.104,209.764,80.68,209.764
		z"/>
</g>
<path style="fill:#DFE9F7;" d="M112.392,465.748c-57.48,0-104.248-46.744-104.248-104.192c0-27.696,10.872-54.744,29.856-74.216
	l2.264-2.336V104.532c0-39.688,31.608-70.784,71.968-70.784c39.736,0,72.048,32.392,72.048,72.192V286.1l2.28,2.336
	c19.408,19.808,30.096,45.776,30.096,73.12C216.656,419.012,169.896,465.748,112.392,465.748z"/>
<path style="fill:#010101;" d="M373.328,203.668L417.08,127.9c1.44-2.48,1.44-5.52,0-8c-1.424-2.48-4.064-4-6.92-4h-87.488
	L278.92,40.132c-1.424-2.48-4.064-4-6.92-4c-2.856,0-5.504,1.52-6.92,4L221.328,115.9h-29.184v-8.008
	c0-17.208-5.44-33.112-14.64-46.168c12.64-0.672,22.736-11.072,22.736-23.872c0-13.232-10.768-24-24-24s-24,10.768-24,24
	c0,0.264,0.064,0.496,0.08,0.76c-11.816-6.896-25.528-10.904-40.224-10.904C67.808,27.7,32.144,62.196,32.144,106.484V283.7
	C12.4,303.956,0,332.98,0,363.508C0,425.444,50.256,475.7,112.256,475.7c61.968,0,112.256-50.256,112.256-112.192
	c0-27.48-10.072-52.56-26.44-72.08h23.256l43.752,75.768c1.424,2.48,4.064,4,6.92,4s5.504-1.52,6.92-4l43.752-75.768h87.48
	c2.856,0,5.504-1.52,6.92-4c1.44-2.48,1.44-5.52,0-8L373.328,203.668z M396.296,131.9l-36.84,63.816l-73.608-0.032l36.808-63.784
	H396.296z M272,60.132l36.816,63.768L272,187.692L235.184,123.9L272,60.132z M192.144,131.9h29.192l36.816,63.792l-66.008,0.024
	V131.9z M176.24,29.852c4.424,0,8,3.584,8,8c0,4.424-3.576,8-8,8c-4.416,0-8-3.576-8-8C168.24,33.436,171.824,29.852,176.24,29.852z
	 M208.512,363.508c0,53.04-43.184,96.2-96.256,96.2c-53.08,0-96.256-43.152-96.256-96.192c0-30.952,12.416-53.208,32-73.296V106.484
	c0-35.2,28.224-62.784,64.096-62.784c35.32,0,64.048,28.8,64.048,64.192c0,69.192,0,112.648,0,183.424
	C196.152,311.74,208.512,333.156,208.512,363.508z M192.144,275.428v-63.712l66-0.024l-36.808,63.744h-29.192V275.428z M272,347.196
	l-36.816-63.768L272,219.668l36.816,63.76L272,347.196z M322.656,275.428l-36.808-63.744l73.656,0.032l36.784,63.712H322.656z"/>
<rect x="80.144" y="91.9" style="fill:#C2D6EF;" width="64" height="96"/>
<path style="fill:#D64230;" d="M144.144,308.78V187.9h-64v120.88c-19.048,11.08-32,31.488-32,55.12c0,35.344,28.656,64,64,64
	s64-28.656,64-64C176.144,340.268,163.192,319.86,144.144,308.78z"/>
<g>
</g>
<g>
</g>
<g>
</g>
<g>
</g>
<g>
</g>
<g>
</g>
<g>
</g>
<g>
</g>
<g>
</g>
<g>
</g>
<g>
</g>
<g>
</g>
<g>
</g>
<g>
</g>
<g>
</g>
</svg>
