<?xml version="1.0" encoding="iso-8859-1"?>
<!-- Generator: Adobe Illustrator 19.0.0, SVG Export Plug-In . SVG Version: 6.00 Build 0)  -->
<svg version="1.1" id="Capa_1" xmlns="http://www.w3.org/2000/svg" xmlns:xlink="http://www.w3.org/1999/xlink" x="0px" y="0px"
	 viewBox="0 0 464 464" style="enable-background:new 0 0 464 464;" xml:space="preserve">
<path style="fill:#FCF1CE;" d="M421.428,155.144l29.024-17.416c1.544-0.928,1.544-3.168,0-4.088l-29.024-17.416l20.152-27.192
	c1.072-1.448,0.216-3.512-1.568-3.776l-33.472-4.984l8.208-32.832c0.44-1.744-1.144-3.328-2.896-2.896l-32.832,8.208l-4.984-33.472
	c-0.264-1.784-2.336-2.64-3.776-1.568l-27.192,20.144L325.652,8.84c-0.928-1.544-3.168-1.544-4.088,0l-17.408,29.024l-27.192-20.152
	c-1.448-1.072-3.512-0.216-3.784,1.568l-4.984,33.472l-32.832-8.208c-1.744-0.44-3.328,1.144-2.896,2.896l8.208,32.832l-33.48,4.984
	c-1.784,0.264-2.64,2.336-1.568,3.776l20.152,27.192l-29.024,17.416c-1.544,0.928-1.544,3.168,0,4.088l29.024,17.416l-20.152,27.192
	c-1.072,1.448-0.216,3.512,1.568,3.776l33.472,4.984l-8.208,32.832c-0.44,1.744,1.144,3.328,2.896,2.896l32.832-8.208l4.984,33.472
	c0.264,1.784,2.336,2.64,3.784,1.568l27.192-20.152l17.416,29.024c0.928,1.544,3.168,1.544,4.088,0l17.416-29.024l27.192,20.152
	c1.448,1.072,3.512,0.216,3.776-1.568l4.984-33.472l32.832,8.208c1.744,0.44,3.328-1.144,2.896-2.896l-8.208-32.832l33.472-4.984
	c1.784-0.264,2.64-2.336,1.568-3.776L421.428,155.144z"/>
<circle style="fill:#F9DB7B;" cx="323.604" cy="135.68" r="80"/>
<path style="fill:#C23D28;" d="M299.604,327.728c-20.704-15.544-46.016-24.048-72-24.048s-51.296,8.496-72,24.048
	c-20.704-15.544-46.016-24.048-72-24.048c-25.08,0-48.968,7.64-69.048,21.816C31.076,222.08,121.108,143.68,227.604,143.68
	s196.528,78.4,213.048,181.816c-20.08-14.168-43.968-21.816-69.048-21.816C345.62,303.68,320.308,312.184,299.604,327.728z"/>
<path style="fill:#AD372B;" d="M306.412,323.424c19.368-12.6,41.912-19.744,65.192-19.744c25.08,0,48.968,7.64,69.048,21.816
	c-15.32-95.936-93.936-170.232-190.248-180.488C279.42,169.16,301.444,238.232,306.412,323.424z"/>
<g>
	<path style="fill:#010101;" d="M454.556,126.776L433.1,113.904l14.872-20.088c2.2-2.952,2.688-6.752,1.28-10.152
		c-1.408-3.416-4.424-5.776-8.08-6.32l-24.752-3.68l6.08-24.28c0.888-3.568-0.144-7.256-2.752-9.864
		c-2.592-2.592-6.28-3.648-9.84-2.72l-24.28,6.064l-3.688-24.752c-0.528-3.648-2.904-6.664-6.312-8.072
		c-3.408-1.416-7.184-0.92-10.144,1.248l-20.112,14.896L332.516,4.752c-3.784-6.344-14.08-6.32-17.832-0.024l-12.872,21.456
		l-20.096-14.88c-2.968-2.208-6.768-2.688-10.16-1.264c-3.408,1.408-5.784,4.424-6.312,8.08l-3.672,24.736l-24.264-6.064
		c-3.592-0.92-7.248,0.128-9.856,2.72c-2.608,2.608-3.64,6.296-2.752,9.872l6.08,24.272l-24.768,3.68
		c-3.64,0.544-6.656,2.904-8.064,6.32c-1.408,3.408-0.92,7.2,1.264,10.144l14.888,20.104l-11.952,7.168
		c8.368-0.888,16.848-1.384,25.456-1.384c1.72,0,3.384,0.224,5.088,0.256c0.368-0.688,0.768-1.368,0.928-2.16
		c0.44-2.216-0.08-4.504-1.424-6.328l-14.56-19.664l24.216-3.6c2.232-0.336,4.216-1.592,5.488-3.472
		c1.248-1.872,1.656-4.192,1.112-6.392L242.5,54.576l23.768,5.928c2.2,0.56,4.528,0.152,6.392-1.112
		c1.872-1.248,3.128-3.24,3.456-5.48l3.608-24.208l19.672,14.576c1.832,1.352,4.112,1.912,6.328,1.416
		c2.216-0.44,4.144-1.8,5.296-3.728l12.592-20.992l12.592,20.992c1.16,1.928,3.08,3.288,5.296,3.728
		c2.216,0.48,4.512-0.08,6.328-1.416L367.5,29.704l3.608,24.208c0.328,2.232,1.576,4.224,3.456,5.48
		c1.872,1.256,4.16,1.656,6.392,1.112l23.768-5.928l-5.952,23.752c-0.544,2.192-0.144,4.512,1.112,6.392
		c1.264,1.872,3.248,3.136,5.488,3.472l24.216,3.6l-14.56,19.664c-1.344,1.824-1.856,4.112-1.424,6.328
		c0.44,2.208,1.8,4.136,3.736,5.296l20.984,12.6l-20.984,12.6c-1.936,1.168-3.296,3.088-3.736,5.296
		c-0.44,2.216,0.08,4.504,1.424,6.328l14.56,19.672l-24.216,3.6c-2.232,0.336-4.232,1.592-5.488,3.472
		c-0.992,1.496-1.288,3.272-1.16,5.032c8.408,8.568,16.056,17.84,23.12,27.584l-5.4-21.552l24.768-3.688
		c3.64-0.544,6.656-2.896,8.064-6.304c1.408-3.4,0.936-7.192-1.264-10.16l-14.888-20.104l21.472-12.872
		c3.16-1.896,5.032-5.224,5.032-8.904S457.732,128.672,454.556,126.776z"/>
	<path style="fill:#010101;" d="M388.412,182.04c9.472-13.056,15.192-28.976,15.192-46.36c0-44.184-35.816-80-80-80
		c-39.008,0-71.4,27.944-78.48,64.888c5.368,0.392,10.672,0.984,15.936,1.728c6.176-28.872,31.848-50.608,62.536-50.608
		c35.288,0,64,28.712,64,64c0,13.376-4.184,25.752-11.232,36.024C380.532,175,384.492,178.488,388.412,182.04z"/>
	<path style="fill:#010101;" d="M227.604,135.68c-118.592,0-215.408,92.232-223.232,208.848
		c20.272-20.296,48.288-32.848,79.232-32.848c27.432,0,52.528,9.896,72,26.264c19.472-16.368,44.568-26.264,72-26.264
		s52.528,9.896,72,26.264c19.472-16.368,44.568-26.264,72-26.264c30.952,0,58.968,12.552,79.232,32.848
		C443.012,227.92,346.204,135.68,227.604,135.68z M371.604,295.68c-25.728,0-50.848,7.816-72,22.216
		c-21.152-14.4-46.272-22.216-72-22.216s-50.848,7.816-72,22.216c-21.152-14.4-46.272-22.216-72-22.216
		c-20.336,0-39.936,4.712-57.576,13.608c22.68-90.8,105.112-157.608,201.576-157.608s178.904,66.8,201.576,157.608
		C411.54,300.392,391.94,295.68,371.604,295.68z"/>
	<path style="fill:#010101;" d="M228.372,328c-4.424,0-8,3.576-8,8v88c0,13.232-10.768,24-24,24s-24-10.768-24-24
		c0-4.424-3.576-8-8-8s-8,3.576-8,8c0,22.056,17.936,40,40,40s40-17.944,40-40v-88C236.372,331.576,232.796,328,228.372,328z"/>
</g>
<g>
</g>
<g>
</g>
<g>
</g>
<g>
</g>
<g>
</g>
<g>
</g>
<g>
</g>
<g>
</g>
<g>
</g>
<g>
</g>
<g>
</g>
<g>
</g>
<g>
</g>
<g>
</g>
<g>
</g>
</svg>
