<?xml version="1.0" encoding="iso-8859-1"?>
<!-- Generator: Adobe Illustrator 19.0.0, SVG Export Plug-In . SVG Version: 6.00 Build 0)  -->
<svg version="1.1" id="Capa_1" xmlns="http://www.w3.org/2000/svg" xmlns:xlink="http://www.w3.org/1999/xlink" x="0px" y="0px"
	 viewBox="0 0 448 448" style="enable-background:new 0 0 448 448;" xml:space="preserve">
<path style="fill:#D9E3D4;" d="M328.768,107.92C290.752,118.208,264,152.568,264,192.712c0,48.52,39.488,88,88,88
	c46.184,0,84.168-35.76,87.736-81.04C437.096,199.888,434.52,200,432,200C379.184,200,334.752,159.504,328.768,107.92z"/>
<path style="fill:#BFC9BE;" d="M313.432,154.144c7.56,0,13.712,6.152,13.712,13.712s-6.152,13.712-13.712,13.712
	s-13.712-6.152-13.712-13.712S305.864,154.144,313.432,154.144 M313.432,140.432c-15.128,0-27.432,12.304-27.432,27.432
	s12.304,27.432,27.432,27.432c15.128,0,27.432-12.304,27.432-27.432S328.56,140.432,313.432,140.432z"/>
<path style="fill:#BCC5B8;" d="M352,208c-0.024,0-0.048,0-0.08,0c-19.784-26.336-47.216-45.496-78.064-55.648
	C267.592,164.488,264,178.2,264,192.712c0,48.52,39.488,88,88,88c33.448,0,62.392-18.888,77.28-46.432
	C407.784,217.88,381.064,208,352,208z"/>
<g>
	<path style="fill:#B3BDB2;" d="M313.432,195.288c7.648,0,14.56-3.16,19.536-8.216c-3.408-3.16-6.96-6.152-10.624-8.992
		c-2.408,2.104-5.472,3.496-8.912,3.496c-7.56,0-13.712-6.152-13.712-13.712c0-1.432,0.408-2.744,0.816-4.04
		c-4.088-2.216-8.272-4.24-12.536-6.104c-1.264,3.144-2,6.552-2,10.144C286,182.984,298.304,195.288,313.432,195.288z"/>
	<path style="fill:#B3BDB2;" d="M389.144,228.712c3.784,0,6.856,3.072,6.856,6.856s-3.072,6.856-6.856,6.856
		s-6.856-3.072-6.856-6.856C382.288,231.792,385.36,228.712,389.144,228.712 M389.144,215c-11.344,0-20.568,9.224-20.568,20.568
		s9.224,20.568,20.568,20.568s20.568-9.224,20.568-20.568S400.488,215,389.144,215z"/>
	<circle style="fill:#B3BDB2;" cx="355.44" cy="195.432" r="3.432"/>
	<circle style="fill:#B3BDB2;" cx="419.44" cy="204.576" r="3.432"/>
</g>
<path style="fill:#F3F3F3;" d="M352,248c-7.688,0-13.128,1.056-20.576,2.328C305.504,204.192,265.4,184,224,184
	c-41.448,0-81.728,20.344-107.424,66.328C109.128,249.056,103.688,248,96,248c-48.512,0-88,39.48-88,88s39.488,88,88,88h256
	c48.512,0,88-39.48,88-88S400.512,248,352,248z"/>
<path style="fill:#E1E1E1;" d="M352,248c-7.688,0-13.136,1.056-20.576,2.328l-6.128,6.128C332.088,270.904,336,286.976,336,304
	c0,61.856-50.144,112-112,112v8h128c48.512,0,88-39.48,88-88S400.512,248,352,248z"/>
<path style="fill:#FCD95F;" d="M32,136.752c0,18.384-13.616,32-32,32c18.384,0,32,13.616,32,32c0-18.384,13.616-32,32-32
	C45.616,168.752,32,155.136,32,136.752z"/>
<g>
	<path style="fill:#010101;" d="M415.256,263.912C435.256,246.336,448,220.72,448,192c0-0.48-0.064-0.944-0.072-1.432
		C442.736,191.44,437.44,192,432,192c-52.536,0-95.16-42.216-95.928-94.568c-41.64,6.968-73.64,40.824-78.752,83.04
		C246.688,177.608,235.536,176,224,176c-47.976,0-89.728,26.432-111.648,65.496C107.032,240.576,101.584,240,96,240
		c-53.016,0-96,42.984-96,96s42.984,96,96,96h256c53.016,0,96-42.984,96-96C448,307.24,435.288,281.504,415.256,263.912z
		 M322.216,117.808c10.144,50.744,54.936,89.424,108.184,90.184c-3.792,18.632-14.432,34.496-28.768,45.952
		C387.136,245.152,370.192,240,352,240c-5.592,0-11.032,0.576-16.352,1.496c-14.064-25.064-36.36-44.816-63.168-55.832
		C274.896,155.04,294.256,128.912,322.216,117.808z M352,416H96c-44.112,0-80-35.888-80-80s35.888-80,80-80
		c4.24,0,8.704,0.416,13.64,1.264l11.136,1.912l5.528-9.856C146.152,213.968,183.584,192,224,192s77.848,21.968,97.688,57.32
		l5.528,9.856l11.136-1.912C343.296,256.416,347.76,256,352,256c44.112,0,80,35.888,80,80S396.112,416,352,416z"/>
	<path style="fill:#010101;" d="M32,136.752c0,18.384-13.616,32-32,32c18.384,0,32,13.616,32,32c0-18.384,13.616-32,32-32
		C45.616,168.752,32,155.136,32,136.752z"/>
</g>
<g>
	<path style="fill:#FCD95F;" d="M144,16c0,36.768-27.232,64-64,64c36.768,0,64,27.224,64,64c0-36.776,27.232-64,64-64
		C171.232,80,144,52.768,144,16z"/>
	<path style="fill:#FCD95F;" d="M114.064,80c12.92,6.616,23.312,17.016,29.936,29.944c6.624-12.928,17.016-23.328,29.936-29.944
		c-12.92-6.616-23.312-17.016-29.936-29.944C137.376,62.984,126.984,73.384,114.064,80z"/>
</g>
<path style="fill:#010101;" d="M144,65.184c4.232,5.6,9.216,10.584,14.816,14.816c-5.6,4.24-10.584,9.216-14.816,14.816
	c-4.232-5.6-9.216-10.584-14.816-14.816C134.784,75.76,139.768,70.784,144,65.184 M144,16c0,36.768-27.232,64-64,64
	c36.768,0,64,27.224,64,64c0-36.776,27.232-64,64-64C171.232,80,144,52.768,144,16z"/>
<g>
</g>
<g>
</g>
<g>
</g>
<g>
</g>
<g>
</g>
<g>
</g>
<g>
</g>
<g>
</g>
<g>
</g>
<g>
</g>
<g>
</g>
<g>
</g>
<g>
</g>
<g>
</g>
<g>
</g>
</svg>
