<?xml version="1.0" encoding="iso-8859-1"?>
<!-- Generator: Adobe Illustrator 19.0.0, SVG Export Plug-In . SVG Version: 6.00 Build 0)  -->
<svg version="1.1" id="Capa_1" xmlns="http://www.w3.org/2000/svg" xmlns:xlink="http://www.w3.org/1999/xlink" x="0px" y="0px"
	 viewBox="0 0 480 480" style="enable-background:new 0 0 480 480;" xml:space="preserve">
<path style="fill:#295185;" d="M263.488,303.504c-8.208-132.592-114.392-238.776-246.992-247L8,55.984v56.424
	C116.296,116.552,203.448,203.704,207.592,312h56.424L263.488,303.504z"/>
<path style="fill:#FCD95F;" d="M8,112.408v64c73.008,4.04,131.552,62.584,135.592,135.592h64
	C203.464,203.536,116.464,116.544,8,112.408z"/>
<path style="fill:#D64231;" d="M8,176.4v55.696l6.672,1.128c36.904,6.208,65.888,35.184,72.112,72.104l1.12,6.672h55.688
	C139.568,238.88,81.12,180.432,8,176.4z"/>
<path style="fill:#A43326;" d="M95.424,212.36c-20.552,5.424-38.872,16.016-54.016,30.04c23.6,12.6,40.76,35.552,45.376,62.928
	l1.12,6.672h55.656C141.36,272.392,123.28,237.08,95.424,212.36z"/>
<path style="fill:#C2A847;" d="M154.176,180.736c-9.664,7.976-18.456,17.096-26.096,27.264c-0.024,0-0.056,0-0.08,0
	c-11.304,0-22.208,1.616-32.656,4.384c27.88,24.736,46.008,60.056,48.216,99.616h64.056
	C205.68,261.544,185.84,215.768,154.176,180.736z"/>
<path style="fill:#203E66;" d="M263.488,303.504c-3.52-56.92-25.192-108.896-59.16-150.424
	c-18.264,6.232-35.36,15.416-50.224,27.704c31.696,35.048,51.568,80.824,53.52,131.208h56.4L263.488,303.504z"/>
<g>
	<path style="fill:#010101;" d="M216,320h-16c0-110.28-89.72-200-200-200v-16C119.112,104,216,200.896,216,320z"/>
	<path style="fill:#010101;" d="M152,320h-16c0-74.992-61.016-136-136-136v-16C83.816,168,152,236.192,152,320z"/>
	<path style="fill:#010101;" d="M16,64.496C144.44,72.456,247.544,175.568,255.504,304H94.664
		c-6.76-40.144-38.528-71.904-78.664-78.664V64.496 M0,48c0,62.128,0,117.528,0,192c44.112,0,80,35.888,80,80
		c62.128,0,117.528,0,192,0C272,169.776,150.224,48,0,48z"/>
</g>
<path style="fill:#F3F3F3;" d="M384,248c-7.688,0-13.128,1.056-20.576,2.328C337.496,204.192,297.4,184,256,184
	c-41.448,0-81.728,20.344-107.424,66.328C141.128,249.056,135.688,248,128,248c-48.512,0-88,39.48-88,88s39.488,88,88,88h256
	c48.512,0,88-39.48,88-88S432.512,248,384,248z"/>
<path style="fill:#E1E1E1;" d="M384,248c-7.688,0-13.136,1.056-20.576,2.328l-6.128,6.128C364.088,270.904,368,286.976,368,304
	c0,61.856-50.144,112-112,112v8h128c48.512,0,88-39.48,88-88S432.512,248,384,248z"/>
<path style="fill:#010101;" d="M256,192c40.416,0,77.848,21.968,97.688,57.328l5.528,9.856l11.136-1.912
	C375.296,256.416,379.76,256,384,256c44.112,0,80,35.888,80,80s-35.888,80-80,80H128c-44.112,0-80-35.888-80-80s35.888-80,80-80
	c4.24,0,8.704,0.416,13.64,1.264l11.136,1.912l5.528-9.856C178.152,213.968,215.584,192,256,192 M256,176
	c-47.976,0-89.728,26.432-111.648,65.496C139.032,240.576,133.584,240,128,240c-53.016,0-96,42.984-96,96s42.984,96,96,96h256
	c53.016,0,96-42.984,96-96s-42.984-96-96-96c-5.592,0-11.032,0.576-16.352,1.496C345.728,202.432,303.976,176,256,176z"/>
<g>
</g>
<g>
</g>
<g>
</g>
<g>
</g>
<g>
</g>
<g>
</g>
<g>
</g>
<g>
</g>
<g>
</g>
<g>
</g>
<g>
</g>
<g>
</g>
<g>
</g>
<g>
</g>
<g>
</g>
</svg>
