<?xml version="1.0" encoding="iso-8859-1"?>
<!-- Generator: Adobe Illustrator 19.0.0, SVG Export Plug-In . SVG Version: 6.00 Build 0)  -->
<svg version="1.1" id="Capa_1" xmlns="http://www.w3.org/2000/svg" xmlns:xlink="http://www.w3.org/1999/xlink" x="0px" y="0px"
	 viewBox="0 0 464.16 464.16" style="enable-background:new 0 0 464.16 464.16;" xml:space="preserve">
<circle style="fill:#FAFDFF;" cx="288.16" cy="224.08" r="176"/>
<circle style="fill:#E6F2FB;" cx="288.16" cy="224.08" r="156.448"/>
<path style="fill:#ABABAB;" d="M72,368.08c-35.296,0-64-28.712-64-64c0-35.288,28.704-64,64-64c5.2,0,10.64,0.832,17.096,2.64
	l6.184,1.728l3.032-5.672c15.344-28.808,45.104-46.696,77.688-46.696s62.344,17.888,77.688,46.696l3.032,5.672l6.184-1.728
	c6.448-1.808,11.888-2.64,17.096-2.64c35.296,0,64,28.712,64,64c0,35.288-28.704,64-64,64H72z"/>
<path style="fill:#999A9B;" d="M280,240.08c-5.2,0-10.64,0.832-17.096,2.64l-6.184,1.728l-3.032-5.672
	C238.344,209.968,208.576,192.08,176,192.08c-24.416,0-47.248,10.048-63.616,27.208c-0.056,1.608-0.24,3.176-0.24,4.792
	c0,59.784,30.088,112.208,75.664,144H280c35.296,0,64-28.712,64-64C344,268.792,315.296,240.08,280,240.08z"/>
<path style="fill:#757B7F;" d="M280,240.08c-5.2,0-10.64,0.832-17.096,2.64l-6.184,1.728l-3.032-5.672
	C238.344,209.968,208.576,192.08,176,192.08c-15.288,0-29.88,4.064-42.728,11.224c-0.92,6.816-1.568,13.712-1.568,20.776
	c0,64.824,39.488,120.296,95.68,144H280c35.296,0,64-28.712,64-64C344,268.792,315.296,240.08,280,240.08z"/>
<g>
	<path style="fill:#FCD95F;" d="M416.144,8.08c0,27.576-20.424,48-48,48c27.576,0,48,20.416,48,48c0-27.584,20.424-48,48-48
		C436.56,56.08,416.144,35.656,416.144,8.08z"/>
	<path style="fill:#FCD95F;" d="M160.144,8.08c0,18.384-13.616,32-32,32c18.384,0,32,13.616,32,32c0-18.384,13.616-32,32-32
		C173.752,40.08,160.144,26.464,160.144,8.08z"/>
</g>
<path style="fill:#D9E3D4;" d="M288.136,352.968c-71.08,0-128.888-57.824-128.888-128.888S217.064,95.192,288.136,95.192
	s128.896,57.816,128.896,128.888S359.216,352.968,288.136,352.968z"/>
<g>
	<path style="fill:#BCC5B8;" d="M233.128,165.784c12.672,0,22.976,10.304,22.976,22.976s-10.312,22.976-22.976,22.976
		s-22.976-10.304-22.976-22.976S220.464,165.784,233.128,165.784 M233.128,149.784c-21.496,0-38.976,17.48-38.976,38.976
		s17.48,38.976,38.976,38.976s38.976-17.48,38.976-38.976S254.624,149.784,233.128,149.784z"/>
	<path style="fill:#BCC5B8;" d="M340.92,271.744c7.296,0,13.232,5.936,13.232,13.232c0,7.296-5.936,13.232-13.232,13.232
		s-13.232-5.936-13.232-13.232C327.688,277.68,333.624,271.744,340.92,271.744 M340.92,255.744
		c-16.128,0-29.232,13.112-29.232,29.232s13.104,29.232,29.232,29.232s29.232-13.112,29.232-29.232S357.048,255.744,340.92,255.744z
		"/>
	<circle style="fill:#BCC5B8;" cx="246.728" cy="284.976" r="9.744"/>
	<circle style="fill:#BCC5B8;" cx="291.36" cy="132.736" r="4.872"/>
	<circle style="fill:#BCC5B8;" cx="301.136" cy="219.208" r="4.872"/>
	<circle style="fill:#BCC5B8;" cx="194.4" cy="256.16" r="4.872"/>
	<circle style="fill:#BCC5B8;" cx="379.04" cy="230.712" r="4.872"/>
	<circle style="fill:#BCC5B8;" cx="272.32" cy="327.336" r="4.872"/>
	<circle style="fill:#BCC5B8;" cx="346.64" cy="165.616" r="17.048"/>
</g>
<path style="fill:#F3F3F3;" d="M372.576,311.504c-6.04,0-10.32,0.832-16.168,1.832c-20.368-36.248-51.872-52.112-84.4-52.112
	c-32.56,0-64.216,15.984-84.4,52.112c-5.848-1-10.128-1.832-16.168-1.832c-38.12,0-69.144,31.016-69.144,69.144
	s31.024,69.144,69.144,69.144h201.136c38.12,0,69.144-31.016,69.144-69.144C441.712,342.528,410.688,311.504,372.576,311.504z"/>
<path style="fill:#E1E1E1;" d="M372.576,311.504c-6.04,0-10.32,0.832-16.168,1.832l-4.816,4.816
	c5.336,11.352,8.408,23.984,8.408,37.36c0,48.6-39.4,88-88,88v6.288h100.568c38.12,0,69.144-31.016,69.144-69.144
	C441.712,342.528,410.688,311.504,372.576,311.504z"/>
<path style="fill:#010101;" d="M395.144,309.04c18.592-23.36,29.88-52.784,29.88-84.96c0-75.6-61.288-136.888-136.888-136.888
	c-62.496,0-115.104,41.928-131.496,99.152c-28.336,5.808-52.176,23.872-65.392,48.672c-6.16-1.72-12.536-2.936-19.248-2.936
	c-39.768,0-72,32.232-72,72s32.232,72,72,72h24.472c-0.096,1.544-0.464,3.008-0.464,4.568c0,41.656,33.768,75.432,75.424,75.432
	h201.136c41.664,0,75.432-33.768,75.432-75.432C448,346.912,425.696,318.68,395.144,309.04z M288.144,103.192
	c66.656,0,120.888,54.232,120.888,120.888c0,31.496-12.256,60.056-32.072,81.584c-1.48-0.088-2.88-0.44-4.384-0.44
	c-4.384,0-8.672,0.456-12.848,1.176c-17.216-30.688-50.024-51.464-87.712-51.464c-33.208,0-62.592,16.144-80.896,40.968
	c-14.928-20.104-23.856-44.92-23.856-71.824C167.256,157.424,221.48,103.192,288.144,103.192z M72,360.08c-30.88,0-56-25.12-56-56
	s25.12-56,56-56c4.464,0,9.216,0.744,14.952,2.344l12.376,3.448l6.04-11.336c10.208-19.152,27.464-32.856,47.568-38.888
	c-1,6.68-1.688,13.472-1.688,20.432c0,30.72,10.248,58.968,27.336,81.8c-2.376-0.248-4.712-0.656-7.16-0.656
	c-34.48,0-63.224,23.272-72.224,54.856C99.208,360.08,72,360.08,72,360.08z M372.576,443.512H171.432
	c-34.664,0-62.856-28.2-62.856-62.856s28.192-62.856,62.856-62.856c6.432,0,12.8,1.352,19.472,2.496
	c20.616-36.736,47.808-52.784,81.104-52.784c33.28,0,60.472,16.032,81.096,52.784c6.672-1.152,13.032-2.496,19.472-2.496
	c34.664,0,62.856,28.2,62.856,62.856C435.424,415.312,407.232,443.512,372.576,443.512z"/>
<g>
</g>
<g>
</g>
<g>
</g>
<g>
</g>
<g>
</g>
<g>
</g>
<g>
</g>
<g>
</g>
<g>
</g>
<g>
</g>
<g>
</g>
<g>
</g>
<g>
</g>
<g>
</g>
<g>
</g>
</svg>
