<?xml version="1.0" encoding="iso-8859-1"?>
<!-- Generator: Adobe Illustrator 19.0.0, SVG Export Plug-In . SVG Version: 6.00 Build 0)  -->
<svg version="1.1" id="Capa_1" xmlns="http://www.w3.org/2000/svg" xmlns:xlink="http://www.w3.org/1999/xlink" x="0px" y="0px"
	 viewBox="0 0 456 456" style="enable-background:new 0 0 456 456;" xml:space="preserve">
<path style="fill:#F3F3F3;" d="M112,132c-44.112,0-80,35.888-80,80s35.888,80,80,80h256c44.112,0,80-35.888,80-80s-35.888-80-80-80
	c-4.232,0-8.704,0.416-13.656,1.264l-11.128,1.904l-5.528-9.848C317.848,89.968,280.408,68,240,68
	c-40.424,0-77.856,21.96-97.688,57.32l-5.528,9.848l-11.128-1.904C120.704,132.416,116.232,132,112,132z"/>
<path style="fill:#E1E1E1;" d="M368,132c-4.232,0-8.704,0.416-13.656,1.264l-11.128,1.904l-5.528-9.848
	c-0.672-1.2-1.528-2.256-2.24-3.432c-2.496,0.912-4.808,2.168-7.216,3.232C338.168,141.064,344,159.832,344,180
	c0,57.44-46.56,104-104,104v8h128c44.112,0,80-35.888,80-80S412.112,132,368,132z"/>
<g>
	<path style="fill:#B7CEEB;" d="M240,244H16c-8.848,0-16-7.168-16-16s7.152-16,16-16h224c17.64,0,32-14.352,32-32s-14.36-32-32-32
		s-32,14.352-32,32c0,8.832-7.16,16-16,16s-16-7.168-16-16c0-35.288,28.704-64,64-64s64,28.712,64,64S275.296,244,240,244z"/>
	<path style="fill:#B7CEEB;" d="M93.424,180H16c-8.848,0-16-7.168-16-16s7.152-16,16-16h77.424c17.64,0,32-14.352,32-32
		s-14.36-32-32-32s-32,14.352-32,32c0,8.832-7.152,16-16,16s-16-7.168-16-16c0-35.288,28.704-64,64-64s64,28.712,64,64
		S128.72,180,93.424,180z"/>
	<path style="fill:#B7CEEB;" d="M93.424,404c-35.296,0-64-28.712-64-64c0-8.832,7.152-16,16-16s16,7.168,16,16
		c0,17.648,14.36,32,32,32s32-14.352,32-32s-14.36-32-32-32H16c-8.848,0-16-7.168-16-16s7.152-16,16-16h77.424
		c35.296,0,64,28.712,64,64C157.424,375.288,128.72,404,93.424,404z"/>
</g>
<g>
	<path style="fill:#010101;" d="M240,236H16c-4.424,0-8-3.576-8-8s3.576-8,8-8h224c22.064,0,40-17.944,40-40s-17.936-40-40-40
		s-40,17.944-40,40c0,4.424-3.576,8-8,8s-8-3.576-8-8c0-30.872,25.128-56,56-56s56,25.128,56,56S270.872,236,240,236z"/>
	<path style="fill:#010101;" d="M93.424,172H16c-4.424,0-8-3.576-8-8s3.576-8,8-8h77.424c22.064,0,40-17.944,40-40s-17.936-40-40-40
		s-40,17.944-40,40c0,4.424-3.576,8-8,8s-8-3.576-8-8c0-30.872,25.128-56,56-56s56,25.128,56,56S124.296,172,93.424,172z"/>
	<path style="fill:#010101;" d="M93.424,396c-30.872,0-56-25.128-56-56c0-4.424,3.576-8,8-8s8,3.576,8,8c0,22.056,17.936,40,40,40
		s40-17.944,40-40s-17.936-40-40-40H16c-4.424,0-8-3.576-8-8s3.576-8,8-8h77.424c30.872,0,56,25.128,56,56
		C149.424,370.872,124.296,396,93.424,396z"/>
	<path style="fill:#010101;" d="M368,300H161.328c-4.424,0-8-3.576-8-8s3.576-8,8-8H368c39.704,0,72-32.296,72-72s-32.296-72-72-72
		c-11.12,0-19.04,2.84-29.344,6.216C318.056,97.48,280.52,76,240,76c-23.56,0-46.64,8.096-64.968,22.792
		c-3.408,2.752-8.472,2.232-11.232-1.232c-2.768-3.456-2.216-8.488,1.232-11.248C186.184,69.344,212.816,60,240,60
		c45.904,0,87.36,25.96,107.544,66.712C354.656,124.888,361.408,124,368,124c48.512,0,88,39.48,88,88S416.512,300,368,300z"/>
</g>
<g>
</g>
<g>
</g>
<g>
</g>
<g>
</g>
<g>
</g>
<g>
</g>
<g>
</g>
<g>
</g>
<g>
</g>
<g>
</g>
<g>
</g>
<g>
</g>
<g>
</g>
<g>
</g>
<g>
</g>
</svg>
