<?xml version="1.0" encoding="iso-8859-1"?>
<!-- Generator: Adobe Illustrator 19.0.0, SVG Export Plug-In . SVG Version: 6.00 Build 0)  -->
<svg version="1.1" id="Capa_1" xmlns="http://www.w3.org/2000/svg" xmlns:xlink="http://www.w3.org/1999/xlink" x="0px" y="0px"
	 viewBox="0 0 464 464" style="enable-background:new 0 0 464 464;" xml:space="preserve">
<path style="fill:#F3F3F3;" d="M368,168c-5.592,0-11.032,0.576-16.352,1.496C329.728,130.432,287.976,104,240,104
	s-89.728,26.432-111.648,65.496C123.032,168.576,117.584,168,112,168c-53.016,0-96,42.984-96,96s42.984,96,96,96h256
	c53.016,0,96-42.984,96-96S421.016,168,368,168z"/>
<path style="fill:#E1E1E1;" d="M368,168c-5.584,0-10.992,0.648-16.312,1.568C362.04,188.048,368,209.312,368,232
	c0,70.696-57.312,128-128,128h128c53.016,0,96-42.984,96-96S421.016,168,368,168z"/>
<g>
	<path style="fill:#B7CEEB;" d="M437.688,197.968c-6.064-6.416-16.184-6.672-22.608-0.608c-6.424,6.088-6.688,16.208-0.608,22.624
		C425.768,231.912,432,247.544,432,264c0,35.288-28.704,64-64,64h-43.624C351.056,304.528,368,270.24,368,232
		c0-70.576-57.424-128-128-128c-8.84,0-16,7.168-16,16s7.16,16,16,16c52.936,0,96,43.064,96,96s-43.064,96-96,96H64
		c-8.848,0-16,7.168-16,16s7.152,16,16,16h304c52.936,0,96-43.064,96-96C464,239.32,454.656,215.872,437.688,197.968z"/>
	<path style="fill:#B7CEEB;" d="M304,232c0-35.288-28.704-64-64-64c-8.84,0-16,7.168-16,16s7.16,16,16,16c17.64,0,32,14.352,32,32
		s-14.36,32-32,32H16c-8.848,0-16,7.168-16,16s7.152,16,16,16h224C275.296,296,304,267.288,304,232z"/>
	<path style="fill:#B7CEEB;" d="M48,232h97.344c8.84,0,16-7.16,16-16s-7.16-16-16-16H48c-8.848,0-16,7.168-16,16S39.152,232,48,232z
		"/>
</g>
<g>
	<path style="fill:#010101;" d="M431.888,203.472c-3.048-3.2-8.112-3.36-11.312-0.304c-3.2,3.04-3.344,8.104-0.312,11.304
		C433,227.904,440,245.496,440,264c0,39.704-32.296,72-72,72h-68.384C335.632,315.272,360,276.464,360,232
		c0-66.168-53.832-120-120-120c-4.424,0-8,3.576-8,8s3.576,8,8,8c57.344,0,104,46.656,104,104s-46.656,104-104,104H64
		c-4.424,0-8,3.576-8,8s3.576,8,8,8h304c48.512,0,88-39.48,88-88C456,241.376,447.44,219.88,431.888,203.472z"/>
	<path style="fill:#010101;" d="M296,232c0-30.872-25.128-56-56-56c-4.424,0-8,3.576-8,8s3.576,8,8,8c22.064,0,40,17.944,40,40
		s-17.936,40-40,40H16c-4.424,0-8,3.576-8,8s3.576,8,8,8h224C270.872,288,296,262.872,296,232z"/>
	<path style="fill:#010101;" d="M48,224h97.344c4.424,0,8-3.576,8-8s-3.576-8-8-8H48c-4.424,0-8,3.576-8,8S43.576,224,48,224z"/>
</g>
<g>
</g>
<g>
</g>
<g>
</g>
<g>
</g>
<g>
</g>
<g>
</g>
<g>
</g>
<g>
</g>
<g>
</g>
<g>
</g>
<g>
</g>
<g>
</g>
<g>
</g>
<g>
</g>
<g>
</g>
</svg>
