<?xml version="1.0" encoding="iso-8859-1"?>
<!-- Generator: Adobe Illustrator 19.0.0, SVG Export Plug-In . SVG Version: 6.00 Build 0)  -->
<svg version="1.1" id="Capa_1" xmlns="http://www.w3.org/2000/svg" xmlns:xlink="http://www.w3.org/1999/xlink" x="0px" y="0px"
	 viewBox="0 0 464 464" style="enable-background:new 0 0 464 464;" xml:space="preserve">
<g>
	<path style="fill:#B7CEEB;" d="M448,340h-66.465c-4.398-0.032-7.955-3.596-7.955-8c0-4.406,3.557-7.968,7.955-8H384
		c8.836,0,16-7.164,16-16c0-8.837-7.164-16-16-16h-79.023c-4.398-0.032-7.897-3.618-7.897-8.022c0-4.294,3.377-7.786,7.623-7.991
		C313.234,275.654,320,268.616,320,260c0-8.837-7.164-16-16-16H96c-8.836,0-16,7.163-16,16c0,8.385,6.455,15.242,14.664,15.922
		c4.023,0.429,7.256,3.921,7.256,8.056c0,4.404-3.557,7.968-7.955,8L48,292c-8.836,0-16,7.163-16,16
		c0,8.629,6.832,15.663,15.383,15.988c4.109,0.34,7.537,3.813,7.537,8.012c0,4.404-3.557,7.968-7.955,8H16c-8.836,0-16,7.163-16,16
		c0,8.836,7.164,16,16,16h15.778h64h13.767c4.397,0.032,7.955,3.594,7.955,8c0,4.344-3.461,8.053-7.775,8.183
		c-0.061,0.002-0.119,0.003-0.18,0.004C101.986,389.464,96,396.077,96,404c0,8.836,7.164,16,16,16h15.778h64H384
		c8.836,0,16-7.164,16-16c0-8.837-7.164-16-16-16h-2.465c-4.398-0.032-7.955-3.596-7.955-8c0-4.406,3.557-7.968,7.955-8H448
		c8.836,0,16-7.164,16-16C464,347.163,456.836,340,448,340z"/>
	<path style="fill:#B7CEEB;" d="M56.111,275.978C64.894,275.913,72,268.797,72,260c0-8.798-7.106-15.913-15.889-15.978
		c-8.783,0.065-15.889,7.18-15.889,15.978C40.222,268.797,47.328,275.913,56.111,275.978z"/>
	<path style="fill:#B7CEEB;" d="M423.889,388c-8.783,0.065-15.889,7.18-15.889,15.978c0,8.797,7.106,15.913,15.889,15.978
		c8.783-0.065,15.889-7.181,15.889-15.978C439.778,395.18,432.672,388.065,423.889,388z"/>
</g>
<path style="fill:#D9E3D4;" d="M344,308c-57.344,0-104-46.656-104-104c0-48.054,33.187-89.82,79.562-100.977
	c5.594,61.469,57.172,108.961,119.438,108.961c2.922,0,5.813-0.133,8.687-0.367C443.922,265.664,398.375,308,344,308z"/>
<path style="fill:#BFC9BE;" d="M298.998,159c8.822,0,16,7.176,16,16s-7.178,16-16,16s-16-7.176-16-16S290.176,159,298.998,159
	 M298.998,143c-17.65,0-32,14.351-32,32s14.35,32,32,32s32-14.351,32-32S316.649,143,298.998,143z"/>
<g>
	<path style="fill:#B3BDB2;" d="M387.332,246c4.411,0,8,3.59,8,8s-3.589,8-8,8s-8-3.59-8-8S382.921,246,387.332,246 M387.332,230
		c-13.238,0-24,10.762-24,24s10.762,24,24,24s24-10.762,24-24S400.57,230,387.332,230z"/>
	<circle style="fill:#B3BDB2;" cx="310" cy="254" r="8"/>
	<circle style="fill:#B3BDB2;" cx="354.64" cy="200" r="4"/>
	<circle style="fill:#B3BDB2;" cx="266.96" cy="230.32" r="4"/>
	<circle style="fill:#B3BDB2;" cx="418.64" cy="209.448" r="4"/>
	<circle style="fill:#B3BDB2;" cx="330.96" cy="288.784" r="4"/>
</g>
<path style="fill:#EAEDE5;" d="M313.753,247.059c0.617,1.134,1.058,2.371,1.058,3.753c0,4.418-3.582,8-8,8
	c-1.383,0-2.617-0.442-3.754-1.059c1.355,2.492,3.906,4.247,6.942,4.247c4.418,0,8-3.582,8-8
	C317.998,250.964,316.245,248.414,313.753,247.059z"/>
<path style="fill:#FCD95F;" d="M122.062,108c12.922,6.617,23.313,17.016,29.938,29.946c6.625-12.93,17.016-23.328,29.938-29.946
	c-12.922-6.617-23.313-17.016-29.938-29.946C145.375,90.984,134.984,101.383,122.062,108z"/>
<g>
	<circle style="fill:#010101;" cx="56" cy="260" r="8"/>
	<circle style="fill:#010101;" cx="424" cy="404" r="8"/>
	<path style="fill:#010101;" d="M40,220c0-18.386,13.614-32,32-32c-18.386,0-32-13.615-32-32c0,18.385-13.614,32-32,32
		C26.386,188,40,201.614,40,220z"/>
	<path style="fill:#010101;" d="M152,172c0-36.774,27.229-64,64-64c-36.771,0-64-27.23-64-64c0,36.77-27.229,64-64,64
		C124.771,108,152,135.226,152,172z M152,93.181c4.236,5.603,9.215,10.582,14.818,14.819c-5.603,4.238-10.582,9.216-14.818,14.819
		c-4.236-5.603-9.215-10.582-14.818-14.819C142.785,103.762,147.764,98.784,152,93.181z"/>
	<path style="fill:#010101;" d="M96,268h156.428c9.057,12.958,20.752,23.85,34.342,32H48c-4.422,0-8,3.578-8,8s3.578,8,8,8h336
		c4.422,0,8-3.578,8-8c0-0.941-0.238-1.813-0.535-2.65c35.932-16.862,61.344-52.103,64.205-93.173
		c0.162-2.328-0.701-4.61-2.362-6.251c-1.504-1.486-3.53-2.315-5.625-2.315c-0.218,0-0.438,0.01-0.658,0.027
		c-2.646,0.221-5.318,0.346-8.023,0.346c-59.854,0-108.683-46.966-111.782-106.05c-0.061-1.156-0.619-2.23-1.534-2.943
		c-0.709-0.554-1.58-0.851-2.466-0.851c-0.252,0-0.508,0.025-0.76,0.074C270.928,104.266,232,149.526,232,204
		c0,11.128,1.678,21.854,4.699,32h16.902c-3.562-10.027-5.602-20.767-5.602-32c0-41.318,26.592-77.594,64.832-90.69
		c10.156,60.765,62.838,106.512,125.83,106.674C431.121,265.517,391.16,300,344,300c-28.289,0-53.57-12.456-71.137-32H304
		c4.422,0,8-3.578,8-8s-3.578-8-8-8h-43.012h-18.066H96c-4.422,0-8,3.578-8,8S91.578,268,96,268z"/>
	<path style="fill:#010101;" d="M448,348H16c-4.422,0-8,3.578-8,8s3.578,8,8,8h432c4.422,0,8-3.578,8-8S452.422,348,448,348z"/>
	<path style="fill:#010101;" d="M384,396H112c-4.422,0-8,3.578-8,8s3.578,8,8,8h272c4.422,0,8-3.578,8-8S388.422,396,384,396z"/>
</g>
<g>
</g>
<g>
</g>
<g>
</g>
<g>
</g>
<g>
</g>
<g>
</g>
<g>
</g>
<g>
</g>
<g>
</g>
<g>
</g>
<g>
</g>
<g>
</g>
<g>
</g>
<g>
</g>
<g>
</g>
</svg>
