<?xml version="1.0" encoding="iso-8859-1"?>
<!-- Generator: Adobe Illustrator 19.0.0, SVG Export Plug-In . SVG Version: 6.00 Build 0)  -->
<svg version="1.1" id="Capa_1" xmlns="http://www.w3.org/2000/svg" xmlns:xlink="http://www.w3.org/1999/xlink" x="0px" y="0px"
	 viewBox="0 0 464 464" style="enable-background:new 0 0 464 464;" xml:space="preserve">
<circle style="fill:#D9E3D4;" cx="287.912" cy="256" r="160"/>
<path style="fill:#BFC9BE;" d="M127.912,256c0,88.368,71.632,160,160,160V96C199.544,96,127.912,167.632,127.912,256z"/>
<path style="fill:#BCC5B8;" d="M349.816,316c6.304,0,11.432,5.128,11.432,11.432s-5.128,11.432-11.432,11.432
	c-6.304,0-11.432-5.128-11.432-11.432S343.512,316,349.816,316 M349.816,293.144c-18.912,0-34.288,15.376-34.288,34.288
	s15.376,34.288,34.288,34.288s34.288-15.376,34.288-34.288S368.728,293.144,349.816,293.144z"/>
<circle style="fill:#A7B0A6;" cx="239.336" cy="319.088" r="11.432"/>
<g>
	<circle style="fill:#BCC5B8;" cx="311.488" cy="144.64" r="5.712"/>
	<circle style="fill:#BCC5B8;" cx="321.28" cy="238.856" r="5.712"/>
</g>
<g>
	<circle style="fill:#A7B0A6;" cx="246.48" cy="138.96" r="5.712"/>
	<circle style="fill:#A7B0A6;" cx="186.24" cy="301.944" r="5.712"/>
</g>
<circle style="fill:#BCC5B8;" cx="394.56" cy="263.784" r="5.712"/>
<circle style="fill:#A7B0A6;" cx="216.4" cy="368" r="5.712"/>
<circle style="fill:#BCC5B8;" cx="356.48" cy="187.432" r="20"/>
<path style="fill:#A7B0A6;" d="M223.624,191.712c12.608,0,22.856,10.256,22.856,22.856s-10.256,22.856-22.856,22.856
	c-12.608,0-22.856-10.256-22.856-22.856C200.768,201.968,211.016,191.712,223.624,191.712 M223.624,168.856
	c-25.216,0-45.712,20.496-45.712,45.712s20.496,45.712,45.712,45.712s45.712-20.496,45.712-45.712
	C269.336,189.36,248.84,168.856,223.624,168.856z"/>
<g>
	<path style="fill:#FCD95F;" d="M64,64c0,36.768-27.232,64-64,64c36.768,0,64,27.224,64,64c0-36.776,27.232-64,64-64
		C91.232,128,64,100.768,64,64z"/>
	<path style="fill:#FCD95F;" d="M34.064,128c12.92,6.616,23.312,17.016,29.936,29.944c6.624-12.928,17.016-23.328,29.936-29.944
		C81.016,121.384,70.624,110.984,64,98.056C57.376,110.984,46.984,121.384,34.064,128z"/>
</g>
<g>
	<path style="fill:#010101;" d="M416,96c0-18.384,13.616-32,32-32c-18.384,0-32-13.616-32-32c0,18.384-13.616,32-32,32
		C402.384,64,416,77.616,416,96z"/>
	<circle style="fill:#010101;" cx="71.912" cy="280" r="8"/>
	<circle style="fill:#010101;" cx="287.824" cy="231.984" r="8"/>
	<path style="fill:#010101;" d="M96,280c0,4.424,3.576,8,8,8h256c4.424,0,8-3.576,8-8s-3.576-8-8-8H104
		C99.576,272,96,275.576,96,280z"/>
	<path style="fill:#010101;" d="M48,328c0,4.424,3.576,8,8,8h255.824c4.424,0,8-3.576,8-8s-3.576-8-8-8H56
		C51.576,320,48,323.576,48,328z"/>
	<path style="fill:#010101;" d="M456,368h-32.232C448.896,337.568,464,298.552,464,256c0-97.2-78.8-176-176-176
		c-91.8,0-167.096,70.312-175.192,160l143.008-0.016c4.416,0,8-3.584,8-8s-3.584-8-8-8H131.288
		c2.272-11.144,5.8-21.808,10.256-31.984h114.28c4.416,0,8-3.584,8-8s-3.584-8-8-8H149.672c6.784-11.688,14.984-22.424,24.392-32
		h81.752c4.416,0,8-3.584,8-8s-3.584-8-8-8h-63.648c26.728-20.064,59.904-32,95.832-32c88.224,0,160,71.776,160,160
		c0,43.584-17.568,83.112-45.928,112c-178.576,0-198.144,0-378.072,0c-4.424,0-8,3.576-8,8s3.576,8,8,8h143.6
		c31.464,29.672,73.728,48,120.4,48c46.704,0,89.04-18.32,120.544-48H456c4.424,0,8-3.576,8-8S460.424,368,456,368z M288,416
		c-35.824,0-68.752-12.016-95.4-32h191C356.888,404,323.856,416,288,416z"/>
	<circle style="fill:#010101;" cx="287.824" cy="184" r="8"/>
	<circle style="fill:#010101;" cx="287.824" cy="136" r="8"/>
	<path style="fill:#010101;" d="M64,192c0-36.776,27.232-64,64-64c-36.768,0-64-27.232-64-64c0,36.768-27.232,64-64,64
		C36.768,128,64,155.224,64,192z M64,113.176c4.24,5.608,9.216,10.584,14.816,14.824c-5.6,4.24-10.584,9.216-14.816,14.824
		c-4.24-5.608-9.216-10.584-14.816-14.824C54.784,123.76,59.76,118.784,64,113.176z"/>
</g>
<g>
</g>
<g>
</g>
<g>
</g>
<g>
</g>
<g>
</g>
<g>
</g>
<g>
</g>
<g>
</g>
<g>
</g>
<g>
</g>
<g>
</g>
<g>
</g>
<g>
</g>
<g>
</g>
<g>
</g>
</svg>
