<?xml version="1.0" encoding="iso-8859-1"?>
<!-- Generator: Adobe Illustrator 19.0.0, SVG Export Plug-In . SVG Version: 6.00 Build 0)  -->
<svg version="1.1" id="Capa_1" xmlns="http://www.w3.org/2000/svg" xmlns:xlink="http://www.w3.org/1999/xlink" x="0px" y="0px"
	 viewBox="0 0 464 464" style="enable-background:new 0 0 464 464;" xml:space="preserve">
<g>
	<path style="fill:#B7CEEB;" d="M448,340h-66.465c-4.398-0.032-7.955-3.596-7.955-8c0-4.406,3.557-7.968,7.955-8H384
		c8.836,0,16-7.164,16-16c0-8.837-7.164-16-16-16h-79.023c-4.398-0.032-7.897-3.618-7.897-8.022c0-4.294,3.377-7.786,7.623-7.991
		C313.234,275.654,320,268.616,320,260c0-8.837-7.164-16-16-16H96c-8.836,0-16,7.163-16,16c0,8.385,6.455,15.242,14.664,15.922
		c4.023,0.429,7.256,3.921,7.256,8.056c0,4.404-3.557,7.968-7.955,8L48,292c-8.836,0-16,7.163-16,16
		c0,8.629,6.832,15.663,15.383,15.988c4.109,0.34,7.537,3.813,7.537,8.012c0,4.404-3.557,7.968-7.955,8H16c-8.836,0-16,7.163-16,16
		c0,8.836,7.164,16,16,16h15.778h64h13.767c4.397,0.032,7.955,3.594,7.955,8c0,4.344-3.461,8.053-7.775,8.183
		c-0.061,0.002-0.119,0.003-0.18,0.004C101.986,389.464,96,396.077,96,404c0,8.836,7.164,16,16,16h15.778h64H384
		c8.836,0,16-7.164,16-16c0-8.837-7.164-16-16-16h-2.465c-4.398-0.032-7.955-3.596-7.955-8c0-4.406,3.557-7.968,7.955-8H448
		c8.836,0,16-7.164,16-16C464,347.163,456.836,340,448,340z"/>
	<path style="fill:#B7CEEB;" d="M56,276h0.222c-0.039,0-0.072-0.022-0.111-0.022S56.039,276,56,276z"/>
	<path style="fill:#B7CEEB;" d="M56.111,275.978C64.894,275.913,72,268.797,72,260c0-8.798-7.106-15.913-15.889-15.978
		c-8.783,0.065-15.889,7.18-15.889,15.978C40.222,268.797,47.328,275.913,56.111,275.978z"/>
	<path style="fill:#B7CEEB;" d="M423.889,388c-8.783,0.065-15.889,7.18-15.889,15.978c0,8.797,7.106,15.913,15.889,15.978
		c8.783-0.065,15.889-7.181,15.889-15.978C439.778,395.18,432.672,388.065,423.889,388z"/>
	<path style="fill:#B7CEEB;" d="M56,244c0.039,0,0.072,0.022,0.111,0.022S56.183,244,56.222,244H56z"/>
</g>
<path style="fill:#FCD95F;" d="M122.062,108c12.922,6.617,23.313,17.016,29.938,29.946c6.625-12.93,17.016-23.328,29.938-29.946
	c-12.922-6.617-23.313-17.016-29.938-29.946C145.375,90.984,134.984,101.383,122.062,108z"/>
<g>
	<circle style="fill:#010101;" cx="56" cy="260" r="8"/>
	<circle style="fill:#010101;" cx="424" cy="404" r="8"/>
	<path style="fill:#010101;" d="M40,220c0-18.386,13.614-32,32-32c-18.386,0-32-13.615-32-32c0,18.385-13.614,32-32,32
		C26.386,188,40,201.614,40,220z"/>
	<path style="fill:#010101;" d="M152,172c0-36.774,27.229-64,64-64c-36.771,0-64-27.23-64-64c0,36.77-27.229,64-64,64
		C124.771,108,152,135.226,152,172z M152,93.181c4.236,5.603,9.215,10.582,14.818,14.819c-5.603,4.238-10.582,9.216-14.818,14.819
		c-4.236-5.603-9.215-10.582-14.818-14.819C142.785,103.762,147.764,98.784,152,93.181z"/>
	<path style="fill:#010101;" d="M304,252H96c-4.422,0-8,3.578-8,8s3.578,8,8,8h208c4.422,0,8-3.578,8-8S308.422,252,304,252z"/>
	<path style="fill:#010101;" d="M384,396H112c-4.422,0-8,3.578-8,8s3.578,8,8,8h272c4.422,0,8-3.578,8-8S388.422,396,384,396z"/>
	<path style="fill:#010101;" d="M448,348H16c-4.422,0-8,3.578-8,8s3.578,8,8,8h432c4.422,0,8-3.578,8-8S452.422,348,448,348z"/>
	<path style="fill:#010101;" d="M384,300H48c-4.422,0-8,3.578-8,8s3.578,8,8,8h336c4.422,0,8-3.578,8-8S388.422,300,384,300z"/>
</g>
<g>
</g>
<g>
</g>
<g>
</g>
<g>
</g>
<g>
</g>
<g>
</g>
<g>
</g>
<g>
</g>
<g>
</g>
<g>
</g>
<g>
</g>
<g>
</g>
<g>
</g>
<g>
</g>
<g>
</g>
</svg>
