<?xml version="1.0" encoding="iso-8859-1"?>
<!-- Generator: Adobe Illustrator 19.0.0, SVG Export Plug-In . SVG Version: 6.00 Build 0)  -->
<svg version="1.1" id="Capa_1" xmlns="http://www.w3.org/2000/svg" xmlns:xlink="http://www.w3.org/1999/xlink" x="0px" y="0px"
	 viewBox="0 0 480.224 480.224" style="enable-background:new 0 0 480.224 480.224;" xml:space="preserve">
<g>
	<path style="fill:#B7CEEB;" d="M464.224,308.112H304.976c-4.4-0.032-7.896-3.616-7.896-8.024c0-4.296,3.376-7.784,7.624-7.992
		c8.528-0.328,15.296-7.368,15.296-15.984c0-8.84-7.168-16-16-16H96c-8.832,0-16,7.16-16,16c0,8.384,6.456,15.24,14.664,15.92
		c4.024,0.432,7.256,3.92,7.256,8.056c0,4.4-3.56,7.968-7.952,8L48,308.112c-8.832,0-16,7.16-16,16
		c0,8.632,6.832,15.664,15.384,15.992c4.112,0.336,7.536,3.808,7.536,8.008c0,4.4-3.56,7.968-7.952,8H16c-8.84,0-16,7.16-16,16
		c0,8.832,7.16,16,16,16h15.776h64h13.768c4.4,0.032,7.952,3.592,7.952,8c0,4.344-3.464,8.056-7.776,8.184
		c-0.064,0-16.12,0-16.184,0C85.984,405.576,80,412.192,80,420.112c0,8.832,7.168,16,16,16h304c8.832,0,16-7.168,16-16
		c0-8.84-7.168-16-16-16h-18.464c-4.4-0.032-7.952-3.6-7.952-8c0-4.408,3.56-7.968,7.952-8H432c8.832,0,16-7.168,16-16
		c0-8.84-7.168-16-16-16h-50.464c-4.4-0.032-7.952-3.6-7.952-8c0-4.408,3.56-7.968,7.952-8h82.688c8.832,0,16-7.168,16-16
		C480.224,315.272,473.056,308.112,464.224,308.112z"/>
	<path style="fill:#B7CEEB;" d="M48.112,292.088C56.896,292.024,64,284.912,64,276.112s-7.104-15.912-15.888-15.976
		c-8.784,0.064-15.888,7.176-15.888,15.976S39.328,292.024,48.112,292.088z"/>
	<path style="fill:#B7CEEB;" d="M447.888,404.112c-8.784,0.064-15.888,7.176-15.888,15.976c0,8.8,7.104,15.912,15.888,15.976
		c8.784-0.064,15.888-7.184,15.888-15.976C463.776,411.288,456.672,404.176,447.888,404.112z"/>
</g>
<circle style="fill:#D9E3D4;" cx="344.24" cy="204.112" r="119.616"/>
<g>
	<path style="fill:#BCC5B8;" d="M299.224,159.112c8.824,0,16,7.176,16,16s-7.176,16-16,16s-16-7.176-16-16
		S290.4,159.112,299.224,159.112 M299.224,143.112c-17.648,0-32,14.352-32,32s14.352,32,32,32s32-14.352,32-32
		S316.872,143.112,299.224,143.112z"/>
	<path style="fill:#BCC5B8;" d="M387.56,246.112c4.408,0,8,3.592,8,8s-3.592,8-8,8s-8-3.592-8-8S383.144,246.112,387.56,246.112
		 M387.56,230.112c-13.24,0-24,10.76-24,24s10.76,24,24,24c13.232,0,24-10.76,24-24S400.792,230.112,387.56,230.112z"/>
</g>
<circle style="fill:#B3BDB2;" cx="310.224" cy="254.112" r="8"/>
<g>
	<circle style="fill:#BCC5B8;" cx="346.88" cy="129.112" r="4"/>
	<circle style="fill:#BCC5B8;" cx="354.88" cy="200.112" r="4"/>
	<circle style="fill:#BCC5B8;" cx="267.224" cy="230.432" r="4"/>
	<circle style="fill:#BCC5B8;" cx="418.88" cy="209.56" r="4"/>
	<circle style="fill:#BCC5B8;" cx="331.2" cy="288.896" r="4"/>
</g>
<path style="fill:#EDF1EA;" d="M313.976,247.168c0.616,1.136,1.056,2.368,1.056,3.752c0,4.416-3.584,8-8,8
	c-1.384,0-2.616-0.44-3.752-1.056c1.352,2.496,3.904,4.248,6.944,4.248c4.416,0,8-3.584,8-8
	C318.224,251.072,316.472,248.528,313.976,247.168z"/>
<circle style="fill:#BCC5B8;" cx="392.24" cy="156.112" r="14"/>
<path style="fill:#EDF1EA;" d="M400.52,145.136c1.776,2.344,3.016,5.128,3.016,8.296c0,7.728-6.264,14-14,14
	c-3.168,0-5.952-1.248-8.296-3.024c2.56,3.376,6.416,5.704,10.984,5.704c7.728,0,14-6.272,14-14
	C406.224,151.552,403.896,147.688,400.52,145.136z"/>
<g>
	<path style="fill:#FCD95F;" d="M152.224,44.112c0,36.768-27.232,64-64,64c36.768,0,64,27.224,64,64c0-36.776,27.232-64,64-64
		C179.448,108.112,152.224,80.88,152.224,44.112z"/>
	<path style="fill:#FCD95F;" d="M122.288,108.112c12.92,6.616,23.312,17.016,29.936,29.944
		c6.624-12.928,17.016-23.328,29.936-29.944c-12.92-6.616-23.312-17.016-29.936-29.944
		C145.6,91.096,135.208,101.496,122.288,108.112z"/>
</g>
<g>
	<path style="fill:#010101;" d="M40.224,204.112c0-18.384,13.616-32,32-32c-18.384,0-32-13.616-32-32c0,18.384-13.616,32-32,32
		C26.608,172.112,40.224,185.728,40.224,204.112z"/>
	<path style="fill:#010101;" d="M152.224,172.112c0-36.776,27.232-64,64-64c-36.768,0-64-27.232-64-64c0,36.768-27.232,64-64,64
		C124.992,108.112,152.224,135.336,152.224,172.112z M152.224,93.296c4.232,5.6,9.216,10.584,14.816,14.816
		c-5.6,4.24-10.584,9.216-14.816,14.816c-4.232-5.6-9.216-10.584-14.816-14.816C143.008,103.872,147.984,98.896,152.224,93.296z"/>
	<circle style="fill:#010101;" cx="48.24" cy="276.112" r="8"/>
	<circle style="fill:#010101;" cx="448.24" cy="420.112" r="8"/>
	<circle style="fill:#010101;" cx="336.24" cy="132.112" r="8"/>
	<circle style="fill:#010101;" cx="304.24" cy="180.112" r="8"/>
	<circle style="fill:#010101;" cx="304.24" cy="228.112" r="8"/>
	<circle style="fill:#010101;" cx="336.24" cy="276.112" r="8"/>
	<path style="fill:#010101;" d="M233.488,268.112H96.44c-4.424,0-8,3.576-8,8s3.576,8,8,8h148.288
		c4.696,5.728,9.792,11.104,15.36,16h26.944c-7.544-4.52-14.472-9.936-20.76-16h38.168c4.424,0,8-3.576,8-8s-3.576-8-8-8h-52
		H233.488z"/>
	<path style="fill:#010101;" d="M400.44,412.112H96.224c-4.424,0-8,3.576-8,8s3.576,8,8,8H400.44c4.424,0,8-3.576,8-8
		S404.864,412.112,400.44,412.112z"/>
	<path style="fill:#010101;" d="M432.224,364.112h-416c-4.424,0-8,3.576-8,8s3.576,8,8,8h416c4.424,0,8-3.576,8-8
		S436.648,364.112,432.224,364.112z"/>
	<path style="fill:#010101;" d="M464.224,316.112h-58.08c39.392-21.824,66.08-63.776,66.08-112c0-70.696-57.304-128-128-128
		s-128,57.304-128,128c0,16.992,3.384,33.168,9.392,48h17.568c-6.952-14.568-10.96-30.808-10.96-48c0-61.76,50.24-112,112-112
		c30.432,0,58.032,12.24,78.232,32h-54.232c-4.416,0-8,3.584-8,8s3.584,8,8,8H436c6.768,9.672,12.048,20.44,15.504,32h-115.28
		c-4.416,0-8,3.584-8,8s3.584,8,8,8h118.72c0.752,5.24,1.28,10.552,1.28,16s-0.52,10.76-1.28,16h-118.72c-4.416,0-8,3.584-8,8
		s3.584,8,8,8h115.28c-3.456,11.56-8.736,22.328-15.504,32h-67.784c-4.416,0-8,3.584-8,8s3.584,8,8,8h54.232
		c-20.208,19.768-47.808,32-78.232,32H48.44c-4.424,0-8,3.576-8,8s3.576,8,8,8h415.784c4.424,0,8-3.576,8-8
		S468.648,316.112,464.224,316.112z"/>
</g>
<g>
</g>
<g>
</g>
<g>
</g>
<g>
</g>
<g>
</g>
<g>
</g>
<g>
</g>
<g>
</g>
<g>
</g>
<g>
</g>
<g>
</g>
<g>
</g>
<g>
</g>
<g>
</g>
<g>
</g>
</svg>
