<?xml version="1.0" encoding="iso-8859-1"?>
<!-- Generator: Adobe Illustrator 19.0.0, SVG Export Plug-In . SVG Version: 6.00 Build 0)  -->
<svg version="1.1" id="Capa_1" xmlns="http://www.w3.org/2000/svg" xmlns:xlink="http://www.w3.org/1999/xlink" x="0px" y="0px"
	 viewBox="0 0 459.064 459.064" style="enable-background:new 0 0 459.064 459.064;" xml:space="preserve">
<path style="fill:#EAF6FD;" d="M406.471,219.08l-0.176-0.192c-0.056-0.056-0.104-0.12-0.16-0.176s-0.12-0.104-0.176-0.16
	L203.911,16.496l-17.136,17.136l147.432,147.432c-34.976-6.336-71.888,1.112-102.192,22.256L28.687,0L11.791,16.896L213.543,218.64
	c-0.024,0.024-0.056,0.048-0.08,0.072c-32.84,32.84-45.344,78.264-37.648,120.744L28.031,191.672l-17.256,17.256l202.92,202.928
	l0.128-0.128c53.232,52.856,139.232,52.76,192.32-0.328C459.239,358.304,459.327,272.312,406.471,219.08z"/>
<circle style="fill:#D9E3D4;" cx="309.831" cy="314.64" r="112"/>
<g>
	<path style="fill:#BFC9BE;" d="M357.367,213.128c33.736,74.72-21.28,157.928-101.928,157.928c-16.416,0-31.888-3.728-45.928-10.072
		c17.56,38.888,56.488,66.072,101.928,66.072c61.856,0,112-50.144,112-112C423.431,269.608,396.255,230.688,357.367,213.128z"/>
	<path style="fill:#BFC9BE;" d="M264.807,253.64c-17.648,0-32,14.352-32,32s14.352,32,32,32s32-14.352,32-32
		S282.455,253.64,264.807,253.64z"/>
</g>
<g>
	<path style="fill:#B3BDB2;" d="M353.135,356.64c4.408,0,8,3.592,8,8s-3.592,8-8,8s-8-3.592-8-8S348.727,356.64,353.135,356.64
		 M353.135,340.64c-13.232,0-24,10.76-24,24s10.768,24,24,24c13.24,0,24-10.76,24-24S366.375,340.64,353.135,340.64z"/>
	<circle style="fill:#B3BDB2;" cx="275.799" cy="364.64" r="8"/>
</g>
<g>
	<circle style="fill:#BFC9BE;" cx="312.471" cy="239.64" r="4"/>
	<circle style="fill:#BFC9BE;" cx="320.471" cy="310.64" r="4"/>
	<circle style="fill:#BFC9BE;" cx="232.799" cy="340.952" r="4"/>
</g>
<g>
	<circle style="fill:#B3BDB2;" cx="384.471" cy="320.08" r="4"/>
	<circle style="fill:#B3BDB2;" cx="296.799" cy="399.424" r="4"/>
	<circle style="fill:#B3BDB2;" cx="357.831" cy="266.64" r="14"/>
</g>
<g>
	<path style="fill:#010101;" d="M69.799,363.056c0,18.384-13.616,32-32,32c18.384,0,32,13.616,32,32c0-18.384,13.616-32,32-32
		C83.415,395.056,69.799,381.44,69.799,363.056z"/>
	<path style="fill:#010101;" d="M345.215,192.072l-20.152-20.152c-5.072-0.536-10.168-0.872-15.264-0.872
		c-29.256,0-58.44,9.008-83.328,26.736l11.408,11.4c21.048-14.368,45.88-22.136,71.92-22.136
		C321.959,187.056,333.839,188.816,345.215,192.072z"/>
	<path style="fill:#010101;" d="M166.671,330.32l20.216,20.216c-11.72-40.872-2.52-86.312,27.144-119.936l66.12,66.12l11.312-11.312
		L51.727,45.664L40.415,56.976l162.24,162.24C174.615,250.536,162.511,291.056,166.671,330.32z"/>
	<path style="fill:#010101;" d="M411.959,213.6L243.303,44.912l-11.312,11.312l168.664,168.664
		c49.552,49.936,49.44,130.88-0.352,180.672c-24.176,24.176-56.32,37.488-90.512,37.488c-34.024,0-66.008-13.208-90.144-37.16
		L50.535,236.808L39.223,248.12l168.752,168.752l0.36,0.36c28.072,27.88,64.776,41.832,101.472,41.832
		c36.856,0,73.704-14.056,101.824-42.176C467.743,360.76,467.839,269.864,411.959,213.6z"/>
	
		<rect x="15.015" y="12.277" transform="matrix(-0.7071 0.7071 -0.7071 -0.7071 59.2832 31.9968)" style="fill:#010101;" width="16" height="32"/>
	
		<rect x="207.024" y="11.928" transform="matrix(-0.7071 0.7071 -0.7071 -0.7071 386.8168 -104.3682)" style="fill:#010101;" width="16" height="32"/>
	
		<rect x="14.236" y="203.843" transform="matrix(-0.7071 0.7071 -0.7071 -0.7071 193.4113 359.572)" style="fill:#010101;" width="16" height="32"/>
</g>
<g>
	<path style="fill:#FCD95F;" d="M389.799,11.056c0,36.768-27.232,64-64,64c36.768,0,64,27.224,64,64c0-36.776,27.232-64,64-64
		C417.031,75.056,389.799,47.824,389.799,11.056z"/>
	<path style="fill:#FCD95F;" d="M359.863,75.056c12.92,6.616,23.312,17.016,29.936,29.944c6.624-12.928,17.016-23.328,29.936-29.944
		c-12.92-6.616-23.312-17.016-29.936-29.944C383.175,58.04,372.791,68.44,359.863,75.056z"/>
</g>
<path style="fill:#010101;" d="M389.799,60.24c4.232,5.6,9.216,10.584,14.816,14.816c-5.6,4.24-10.584,9.216-14.816,14.816
	c-4.232-5.6-9.216-10.584-14.816-14.816C380.591,70.816,385.567,65.84,389.799,60.24 M389.799,11.056c0,36.768-27.232,64-64,64
	c36.768,0,64,27.224,64,64c0-36.776,27.232-64,64-64C417.031,75.056,389.799,47.824,389.799,11.056z"/>
<g>
</g>
<g>
</g>
<g>
</g>
<g>
</g>
<g>
</g>
<g>
</g>
<g>
</g>
<g>
</g>
<g>
</g>
<g>
</g>
<g>
</g>
<g>
</g>
<g>
</g>
<g>
</g>
<g>
</g>
</svg>
