<?xml version="1.0" encoding="iso-8859-1"?>
<!-- Generator: Adobe Illustrator 19.0.0, SVG Export Plug-In . SVG Version: 6.00 Build 0)  -->
<svg version="1.1" id="Capa_1" xmlns="http://www.w3.org/2000/svg" xmlns:xlink="http://www.w3.org/1999/xlink" x="0px" y="0px"
	 viewBox="0 0 448 448" style="enable-background:new 0 0 448 448;" xml:space="preserve">
<g>
	<path style="fill:#FCD95F;" d="M144,16c0,36.768-27.232,64-64,64c36.768,0,64,27.224,64,64c0-36.776,27.232-64,64-64
		C171.232,80,144,52.768,144,16z"/>
	<g>
		<path id="SVGCleanerId_0" style="fill:#FCD95F;" d="M32,136.752c0,18.384-13.616,32-32,32c18.384,0,32,13.616,32,32
			c0-18.384,13.616-32,32-32C45.616,168.752,32,155.136,32,136.752z"/>
	</g>
	<path style="fill:#FCD95F;" d="M114.064,80c12.92,6.616,23.312,17.016,29.936,29.944c6.624-12.928,17.016-23.328,29.936-29.944
		c-12.92-6.616-23.312-17.016-29.936-29.944C137.376,62.984,126.984,73.384,114.064,80z"/>
	<g>
		<path id="SVGCleanerId_0_1_" style="fill:#FCD95F;" d="M32,136.752c0,18.384-13.616,32-32,32c18.384,0,32,13.616,32,32
			c0-18.384,13.616-32,32-32C45.616,168.752,32,155.136,32,136.752z"/>
	</g>
</g>
<g>
	<path style="fill:#010101;" d="M144,65.176c4.24,5.6,9.216,10.584,14.816,14.816c-5.6,4.24-10.584,9.216-14.816,14.816
		c-4.24-5.6-9.216-10.584-14.816-14.816C134.784,75.76,139.768,70.784,144,65.176 M144,16c0,36.768-27.232,64-64,64
		c36.768,0,64,27.224,64,64c0-36.776,27.232-64,64-64C171.232,80,144,52.768,144,16z"/>
	<g>
		<path id="SVGCleanerId_0_2_" style="fill:#010101;" d="M32,136.752c0,18.384-13.616,32-32,32c18.384,0,32,13.616,32,32
			c0-18.384,13.616-32,32-32C45.616,168.752,32,155.136,32,136.752z"/>
	</g>
</g>
<path style="fill:#F3F3F3;" d="M352,248c-7.688,0-13.128,1.056-20.576,2.328C305.496,204.192,265.4,184,224,184
	c-41.448,0-81.728,20.344-107.424,66.328C109.128,249.056,103.688,248,96,248c-48.512,0-88,39.48-88,88s39.488,88,88,88h256
	c48.512,0,88-39.48,88-88S400.52,248,352,248z"/>
<path style="fill:#E1E1E1;" d="M352,248c-7.688,0-13.136,1.056-20.576,2.328l-6.128,6.128C332.088,270.904,336,286.976,336,304
	c0,61.856-50.144,112-112,112v8h128c48.512,0,88-39.48,88-88S400.52,248,352,248z"/>
<path style="fill:#010101;" d="M224,192c40.416,0,77.848,21.968,97.688,57.328l5.528,9.856l11.136-1.912
	C343.296,256.416,347.76,256,352,256c44.112,0,80,35.888,80,80s-35.888,80-80,80H96c-44.112,0-80-35.888-80-80s35.888-80,80-80
	c4.24,0,8.704,0.416,13.648,1.264l11.136,1.912l5.528-9.856C146.152,213.968,183.584,192,224,192 M224,176
	c-47.976,0-89.728,26.432-111.648,65.496C107.032,240.576,101.592,240,96,240c-53.016,0-96,42.984-96,96s42.984,96,96,96h256
	c53.016,0,96-42.984,96-96s-42.984-96-96-96c-5.584,0-11.032,0.576-16.352,1.496C313.728,202.432,271.976,176,224,176z"/>
<g>
</g>
<g>
</g>
<g>
</g>
<g>
</g>
<g>
</g>
<g>
</g>
<g>
</g>
<g>
</g>
<g>
</g>
<g>
</g>
<g>
</g>
<g>
</g>
<g>
</g>
<g>
</g>
<g>
</g>
</svg>
